Arrow_XtraBold.ufo
<glyph name="numbersign" format="1">
  <advance width="693"/>
  <unicode hex="0023"/>
  <outline>
    <contour>
      <point x="35" y="213" type="line"/>
      <point x="30" y="219" type="line"/>
      <point x="55" y="283" type="line"/>
      <point x="618" y="283" type="line"/>
      <point x="623" y="276" type="line"/>
      <point x="598" y="213" type="line"/>
    </contour>
    <contour>
      <point x="75" y="453" type="line"/>
      <point x="70" y="459" type="line"/>
      <point x="95" y="523" type="line"/>
      <point x="658" y="523" type="line"/>
      <point x="663" y="516" type="line"/>
      <point x="638" y="453" type="line"/>
    </contour>
    <contour>
      <point x="109" y="-8" type="line"/>
      <point x="277" y="729" type="line"/>
      <point x="344" y="729" type="line"/>
      <point x="350" y="721" type="line"/>
      <point x="182" y="-16" type="line"/>
      <point x="115" y="-16" type="line"/>
    </contour>
    <contour>
      <point x="339" y="-8" type="line"/>
      <point x="507" y="729" type="line"/>
      <point x="574" y="729" type="line"/>
      <point x="580" y="721" type="line"/>
      <point x="412" y="-16" type="line"/>
      <point x="345" y="-16" type="line"/>
    </contour>
  </outline>
</glyph>
<glyph name="dollar" format="1">
  <advance width="548"/>
  <unicode hex="0024"/>
  <outline>
    <contour>
      <point x="205" y="-83" type="line"/>
      <point x="282" y="-83" type="line"/>
      <point x="362" y="728" type="line"/>
      <point x="285" y="728" type="line"/>
    </contour>
    <component base="S"/>
  </outline>
</glyph>
<glyph name="parenright" format="1">
  <advance width="301"/>
  <unicode hex="0029"/>
  <outline>
    <contour>
      <point x="87" y="723" type="curve"/>
      <point x="13" y="707" type="line"/>
      <point x="112" y="571"/>
      <point x="136" y="432"/>
      <point x="136" y="294" type="curve" smooth="yes"/>
      <point x="136" y="154"/>
      <point x="111" y="14"/>
      <point x="10" y="-124" type="curve"/>
      <point x="85" y="-141" type="line"/>
      <point x="212" y="2"/>
      <point x="261" y="147"/>
      <point x="261" y="292" type="curve" smooth="yes"/>
      <point x="261" y="436"/>
      <point x="213" y="581"/>
    </contour>
  </outline>
</glyph>
<glyph name="comma" format="1">
  <advance width="229"/>
  <unicode hex="002C"/>
  <outline>
    <contour>
      <point x="78" y="25" type="line" smooth="yes"/>
      <point x="101" y="21"/>
      <point x="116" y="13"/>
      <point x="116" y="-10" type="curve" smooth="yes"/>
      <point x="116" y="-57"/>
      <point x="73" y="-89"/>
      <point x="32" y="-113" type="curve"/>
      <point x="56" y="-148" type="line"/>
      <point x="141" y="-108"/>
      <point x="197" y="-38"/>
      <point x="197" y="56" type="curve" smooth="yes"/>
      <point x="197" y="111"/>
      <point x="168" y="156"/>
      <point x="113" y="156" type="curve" smooth="yes"/>
      <point x="68" y="156"/>
      <point x="32" y="128"/>
      <point x="32" y="85" type="curve" smooth="yes"/>
      <point x="32" y="64"/>
      <point x="38" y="46"/>
      <point x="47" y="30" type="curve"/>
    </contour>
  </outline>
</glyph>
<glyph name="five" format="1">
  <advance width="506"/>
  <unicode hex="0035"/>
  <outline>
    <contour>
      <point x="202" y="-165" type="curve" smooth="yes"/>
      <point x="348" y="-165"/>
      <point x="464" y="-69"/>
      <point x="464" y="50" type="curve" smooth="yes"/>
      <point x="464" y="171"/>
      <point x="379" y="248"/>
      <point x="214" y="261" type="curve" smooth="yes"/>
      <point x="103" y="270" type="line"/>
      <point x="130" y="242" type="line"/>
      <point x="143" y="356" type="line"/>
      <point x="437" y="356" type="line"/>
      <point x="450" y="495" type="line"/>
      <point x="83" y="495" type="line"/>
      <point x="47" y="144" type="line"/>
      <point x="163" y="131" type="line" smooth="yes"/>
      <point x="264" y="120"/>
      <point x="307.0" y="80.0"/>
      <point x="307.0" y="10.0" type="curve" smooth="yes"/>
      <point x="307.0" y="-49.0"/>
      <point x="276.0" y="-104.0"/>
      <point x="217.0" y="-105.0" type="curve" smooth="yes"/>
      <point x="169.0" y="-105.0"/>
      <point x="140.0" y="-93.0"/>
      <point x="116.0" y="-40.0" type="curve" smooth="yes"/>
      <point x="82.0" y="34.0" type="line"/>
      <point x="20.0" y="23.0"/>
      <point x="5.0" y="-18.0"/>
      <point x="5.0" y="-43.0" type="curve" smooth="yes"/>
      <point x="5.0" y="-124.0"/>
      <point x="105" y="-165"/>
    </contour>
  </outline>
</glyph>
<glyph name="seven" format="1">
  <advance width="510"/>
  <unicode hex="0037"/>
  <outline>
    <contour>
      <point x="95" y="-163" type="line"/>
      <point x="256" y="-163" type="line"/>
      <point x="495" y="440" type="line"/>
      <point x="495" y="495" type="line"/>
      <point x="23" y="495" type="line"/>
      <point x="11" y="235" type="line"/>
      <point x="76" y="235" type="line"/>
      <point x="114" y="348" type="line" smooth="yes"/>
      <point x="125" y="380"/>
      <point x="128" y="387"/>
      <point x="168" y="387" type="curve" smooth="yes"/>
      <point x="419" y="387" type="line"/>
      <point x="396" y="455" type="line"/>
      <point x="95" y="-161" type="line"/>
    </contour>
  </outline>
</glyph>
<glyph name="eight" format="1">
  <advance width="580"/>
  <unicode hex="0038"/>
  <outline>
    <contour>
      <point x="540" y="176" type="curve" smooth="yes"/>
      <point x="540" y="265"/>
      <point x="466" y="312"/>
      <point x="386" y="351" type="curve"/>
      <point x="448" y="374"/>
      <point x="509" y="404"/>
      <point x="509" y="488" type="curve" smooth="yes"/>
      <point x="509" y="585"/>
      <point x="403" y="632"/>
      <point x="293" y="632" type="curve" smooth="yes"/>
      <point x="167" y="632"/>
      <point x="54" y="576"/>
      <point x="54" y="445" type="curve" smooth="yes"/>
      <point x="54" y="368"/>
      <point x="108" y="313"/>
      <point x="177" y="277" type="curve"/>
      <point x="103" y="259"/>
      <point x="40" y="215"/>
      <point x="40" y="139" type="curve" smooth="yes"/>
      <point x="40" y="27"/>
      <point x="159" y="-15"/>
      <point x="281" y="-15" type="curve" smooth="yes"/>
      <point x="416" y="-15"/>
      <point x="540" y="41"/>
    </contour>
    <contour>
      <point x="198.0" y="508.0" type="curve" smooth="yes"/>
      <point x="198.0" y="554.0"/>
      <point x="234.0" y="576.0"/>
      <point x="275.0" y="576.0" type="curve" smooth="yes"/>
      <point x="343.0" y="576.0"/>
      <point x="376.0" y="524.0"/>
      <point x="376.0" y="463.0" type="curve" smooth="yes"/>
      <point x="376.0" y="429.0"/>
      <point x="369.0" y="396.0"/>
      <point x="355.0" y="365.0" type="curve"/>
      <point x="316" y="383" type="line" smooth="yes"/>
      <point x="254" y="412"/>
      <point x="198.0" y="439.0"/>
    </contour>
    <contour>
      <point x="180.0" y="166.0" type="curve" smooth="yes"/>
      <point x="180.0" y="201.0"/>
      <point x="185.0" y="235.0"/>
      <point x="207.0" y="262.0" type="curve"/>
      <point x="247" y="250" type="line" smooth="yes"/>
      <point x="302" y="233"/>
      <point x="379.0" y="198.0"/>
      <point x="379.0" y="121.0" type="curve" smooth="yes"/>
      <point x="379.0" y="69.0"/>
      <point x="338.0" y="38.0"/>
      <point x="286.0" y="38.0" type="curve" smooth="yes"/>
      <point x="217.0" y="38.0"/>
      <point x="180.0" y="97.0"/>
    </contour>
  </outline>
</glyph>
<glyph name="nine" format="1">
  <advance width="542"/>
  <unicode hex="0039"/>
  <outline>
    <contour>
      <point x="271" y="496" type="curve" smooth="yes"/>
      <point x="136" y="496"/>
      <point x="30" y="401"/>
      <point x="30" y="280" type="curve" smooth="yes"/>
      <point x="30" y="178"/>
      <point x="107" y="101"/>
      <point x="207" y="101" type="curve" smooth="yes"/>
      <point x="263" y="101"/>
      <point x="309" y="118"/>
      <point x="350" y="155" type="curve" smooth="yes"/>
      <point x="377" y="180" type="line"/>
      <point x="372" y="219" type="line"/>
      <point x="348" y="199" type="line" smooth="yes"/>
      <point x="330" y="183"/>
      <point x="303" y="173"/>
      <point x="279" y="173" type="curve" smooth="yes"/>
      <point x="217" y="173"/>
      <point x="182" y="220"/>
      <point x="182" y="304" type="curve" smooth="yes"/>
      <point x="182" y="375"/>
      <point x="211" y="413"/>
      <point x="265" y="413" type="curve" smooth="yes"/>
      <point x="330" y="413"/>
      <point x="362" y="351"/>
      <point x="362" y="225" type="curve" smooth="yes"/>
      <point x="362" y="66"/>
      <point x="261" y="-59"/>
      <point x="134" y="-59" type="curve" smooth="yes"/>
      <point x="97" y="-59"/>
      <point x="66" y="-56"/>
      <point x="37" y="-50" type="curve"/>
      <point x="37" y="-123" type="line"/>
      <point x="75" y="-138"/>
      <point x="112" y="-145"/>
      <point x="152" y="-145" type="curve" smooth="yes"/>
      <point x="363" y="-145"/>
      <point x="511" y="9"/>
      <point x="511" y="228" type="curve" smooth="yes"/>
      <point x="511" y="393"/>
      <point x="419" y="496"/>
    </contour>
  </outline>
</glyph>
<glyph name="B" format="1">
  <advance width="710"/>
  <unicode hex="0042"/>
  <outline>
    <contour>
      <point x="386" y="-2" type="line" smooth="yes"/>
      <point x="528" y="-3"/>
      <point x="670" y="51"/>
      <point x="670" y="193" type="curve" smooth="yes"/>
      <point x="670" y="279"/>
      <point x="603" y="329"/>
      <point x="493" y="358" type="curve"/>
      <point x="494" y="339" type="line"/>
      <point x="583" y="375"/>
      <point x="627" y="423"/>
      <point x="627" y="491" type="curve" smooth="yes"/>
      <point x="627" y="619"/>
      <point x="499" y="646"/>
      <point x="371" y="645" type="curve" smooth="yes"/>
      <point x="22" y="642" type="line"/>
      <point x="22" y="582" type="line"/>
      <point x="150" y="568" type="line"/>
      <point x="120" y="602" type="line"/>
      <point x="120" y="40" type="line"/>
      <point x="150" y="74" type="line"/>
      <point x="22" y="60" type="line"/>
      <point x="22" y="0" type="line"/>
    </contour>
    <contour>
      <point x="376" y="72" type="curve" smooth="yes"/>
      <point x="311" y="72"/>
      <point x="290" y="93"/>
      <point x="290" y="155" type="curve" smooth="yes"/>
      <point x="290" y="291" type="line"/>
      <point x="343" y="291" type="line" smooth="yes"/>
      <point x="435" y="291"/>
      <point x="484" y="253"/>
      <point x="484" y="182" type="curve" smooth="yes"/>
      <point x="484" y="103"/>
      <point x="435" y="72"/>
    </contour>
    <contour>
      <point x="290" y="365" type="line"/>
      <point x="290" y="565" type="line"/>
      <point x="337" y="565" type="line" smooth="yes"/>
      <point x="415" y="565"/>
      <point x="463" y="538"/>
      <point x="463" y="473" type="curve" smooth="yes"/>
      <point x="463" y="402"/>
      <point x="418" y="361"/>
      <point x="341" y="363" type="curve" smooth="yes"/>
    </contour>
  </outline>
</glyph>
<glyph name="C" format="1">
  <advance width="685"/>
  <unicode hex="0043"/>
  <outline>
    <contour>
      <point x="377" y="-15" type="curve" smooth="yes"/>
      <point x="459" y="-15"/>
      <point x="540" y="-1"/>
      <point x="616" y="29" type="curve"/>
      <point x="655" y="242" type="line"/>
      <point x="595" y="242" type="line"/>
      <point x="551" y="156" type="line" smooth="yes"/>
      <point x="518" y="91"/>
      <point x="480" y="61"/>
      <point x="409" y="61" type="curve" smooth="yes"/>
      <point x="276" y="61"/>
      <point x="225" y="187"/>
      <point x="225" y="320" type="curve" smooth="yes"/>
      <point x="225" y="460"/>
      <point x="264" y="583"/>
      <point x="404" y="583" type="curve" smooth="yes"/>
      <point x="440" y="583"/>
      <point x="475" y="579"/>
      <point x="536" y="555" type="curve"/>
      <point x="499" y="595" type="line"/>
      <point x="570" y="429" type="line"/>
      <point x="630" y="429" type="line"/>
      <point x="620" y="649" type="line"/>
      <point x="520" y="635" type="line"/>
      <point x="482" y="648"/>
      <point x="442" y="655"/>
      <point x="402" y="655" type="curve" smooth="yes"/>
      <point x="190" y="655"/>
      <point x="40" y="514"/>
      <point x="40" y="302" type="curve" smooth="yes"/>
      <point x="40" y="112"/>
      <point x="187" y="-15"/>
    </contour>
    <contour>
      <point x="377" y="0" type="move" name="bottom"/>
    </contour>
    <contour>
      <point x="364" y="642" type="move" name="topuc"/>
    </contour>
  </outline>
</glyph>
<glyph name="E" format="1">
  <advance width="658"/>
  <unicode hex="0045"/>
  <outline>
    <contour>
      <point x="32" y="0" type="line"/>
      <point x="586" y="0" type="line"/>
      <point x="616" y="240" type="line"/>
      <point x="556" y="240" type="line"/>
      <point x="530" y="186" type="line" smooth="yes"/>
      <point x="508" y="140"/>
      <point x="490" y="83"/>
      <point x="439" y="82" type="curve" smooth="yes"/>
      <point x="340" y="80" type="line" smooth="yes"/>
      <point x="312" y="79"/>
      <point x="300" y="92"/>
      <point x="300" y="122" type="curve" smooth="yes"/>
      <point x="300" y="293" type="line"/>
      <point x="469" y="291" type="line"/>
      <point x="479" y="384" type="line"/>
      <point x="300" y="382" type="line"/>
      <point x="300" y="563" type="line"/>
      <point x="495" y="563" type="line"/>
      <point x="453" y="590" type="line"/>
      <point x="529" y="441" type="line"/>
      <point x="589" y="441" type="line"/>
      <point x="579" y="662" type="line"/>
      <point x="472" y="642" type="line"/>
      <point x="32" y="642" type="line"/>
      <point x="32" y="582" type="line"/>
      <point x="160" y="568" type="line"/>
      <point x="130" y="602" type="line"/>
      <point x="130" y="40" type="line"/>
      <point x="160" y="74" type="line"/>
      <point x="32" y="60" type="line"/>
    </contour>
    <contour>
      <point x="328.0" y="642.0" type="move" name="topuc"/>
    </contour>
    <contour>
      <point x="328.0" y="0.0" type="move" name="bottom"/>
    </contour>
    <contour>
      <point x="463.0" y="0.0" type="move" name="ogonek"/>
    </contour>
  </outline>
</glyph>
<glyph name="F" format="1">
  <advance width="611"/>
  <unicode hex="0046"/>
  <outline>
    <contour>
      <point x="32" y="0" type="line"/>
      <point x="439" y="0" type="line"/>
      <point x="439" y="60" type="line"/>
      <point x="270" y="72" type="line"/>
      <point x="300" y="40" type="line"/>
      <point x="300" y="293" type="line"/>
      <point x="469" y="291" type="line"/>
      <point x="479" y="384" type="line"/>
      <point x="300" y="382" type="line"/>
      <point x="300" y="563" type="line"/>
      <point x="495" y="563" type="line"/>
      <point x="453" y="590" type="line"/>
      <point x="529" y="441" type="line"/>
      <point x="589" y="441" type="line"/>
      <point x="579" y="662" type="line"/>
      <point x="472" y="642" type="line"/>
      <point x="32" y="642" type="line"/>
      <point x="32" y="582" type="line"/>
      <point x="160" y="568" type="line"/>
      <point x="130" y="602" type="line"/>
      <point x="130" y="40" type="line"/>
      <point x="160" y="74" type="line"/>
      <point x="32" y="60" type="line"/>
    </contour>
  </outline>
</glyph>
<glyph name="H" format="1">
  <advance width="863"/>
  <unicode hex="0048"/>
  <outline>
    <contour>
      <point x="32" y="0" type="line"/>
      <point x="398" y="0" type="line"/>
      <point x="398" y="60" type="line"/>
      <point x="270" y="74" type="line"/>
      <point x="300" y="40" type="line"/>
      <point x="300" y="315" type="line"/>
      <point x="270" y="285" type="line"/>
      <point x="592" y="285" type="line"/>
      <point x="562" y="315" type="line"/>
      <point x="562" y="40" type="line"/>
      <point x="592" y="74" type="line"/>
      <point x="465" y="60" type="line"/>
      <point x="465" y="0" type="line"/>
      <point x="831" y="0" type="line"/>
      <point x="831" y="60" type="line"/>
      <point x="702" y="74" type="line"/>
      <point x="732" y="40" type="line"/>
      <point x="732" y="602" type="line"/>
      <point x="702" y="568" type="line"/>
      <point x="831" y="582" type="line"/>
      <point x="831" y="642" type="line"/>
      <point x="464" y="642" type="line"/>
      <point x="464" y="582" type="line"/>
      <point x="592" y="568" type="line"/>
      <point x="562" y="602" type="line"/>
      <point x="562" y="345" type="line"/>
      <point x="592" y="375" type="line"/>
      <point x="270" y="375" type="line"/>
      <point x="300" y="345" type="line"/>
      <point x="300" y="602" type="line"/>
      <point x="270" y="568" type="line"/>
      <point x="399" y="582" type="line"/>
      <point x="399" y="642" type="line"/>
      <point x="32" y="642" type="line"/>
      <point x="32" y="582" type="line"/>
      <point x="160" y="568" type="line"/>
      <point x="130" y="602" type="line"/>
      <point x="130" y="40" type="line"/>
      <point x="160" y="74" type="line"/>
      <point x="32" y="60" type="line"/>
    </contour>
    <contour>
      <point x="431" y="642" type="move" name="topuc"/>
    </contour>
  </outline>
</glyph>
<glyph name="I" format="1">
  <advance width="431"/>
  <unicode hex="0049"/>
  <outline>
    <contour>
      <point x="32" y="0" type="line"/>
      <point x="399" y="0" type="line"/>
      <point x="399" y="60" type="line"/>
      <point x="270" y="74" type="line"/>
      <point x="300" y="40" type="line"/>
      <point x="300" y="602" type="line"/>
      <point x="270" y="568" type="line"/>
      <point x="399" y="582" type="line"/>
      <point x="399" y="642" type="line"/>
      <point x="32" y="642" type="line"/>
      <point x="32" y="582" type="line"/>
      <point x="160" y="568" type="line"/>
      <point x="130" y="602" type="line"/>
      <point x="130" y="40" type="line"/>
      <point x="160" y="74" type="line"/>
      <point x="32" y="60" type="line"/>
    </contour>
    <contour>
      <point x="215.0" y="0.0" type="move" name="bottom"/>
    </contour>
    <contour>
      <point x="295.0" y="0.0" type="move" name="ogonek"/>
    </contour>
    <contour>
      <point x="215.0" y="642.0" type="move" name="topuc"/>
    </contour>
  </outline>
</glyph>
<glyph name="L" format="1">
  <advance width="642"/>
  <unicode hex="004C"/>
  <outline>
    <contour>
      <point x="32" y="0" type="line"/>
      <point x="586" y="0" type="line"/>
      <point x="626" y="250" type="line"/>
      <point x="566" y="250" type="line"/>
      <point x="508" y="142" type="line" smooth="yes"/>
      <point x="489" y="107"/>
      <point x="466" y="83"/>
      <point x="426" y="82" type="curve" smooth="yes"/>
      <point x="343" y="80" type="line" smooth="yes"/>
      <point x="316" y="79"/>
      <point x="300" y="99"/>
      <point x="300" y="126" type="curve" smooth="yes"/>
      <point x="300" y="602" type="line"/>
      <point x="270" y="568" type="line"/>
      <point x="398" y="582" type="line"/>
      <point x="398" y="642" type="line"/>
      <point x="32" y="642" type="line"/>
      <point x="32" y="582" type="line"/>
      <point x="160" y="568" type="line"/>
      <point x="130" y="602" type="line"/>
      <point x="130" y="40" type="line"/>
      <point x="160" y="74" type="line"/>
      <point x="32" y="60" type="line"/>
    </contour>
    <contour>
      <point x="218.0" y="641.0" type="move" name="topuc"/>
    </contour>
    <contour>
      <point x="320.0" y="0.0" type="move" name="bottom"/>
    </contour>
    <contour>
      <point x="420.0" y="642.0" type="move" name="right"/>
    </contour>
  </outline>
</glyph>
<glyph name="N" format="1">
  <advance width="858"/>
  <unicode hex="004E"/>
  <outline>
    <contour>
      <point x="30" y="0" type="line"/>
      <point x="350" y="0" type="line"/>
      <point x="350" y="60" type="line"/>
      <point x="201" y="73" type="line"/>
      <point x="231" y="40" type="line"/>
      <point x="224" y="496" type="line"/>
      <point x="204" y="488" type="line"/>
      <point x="683" y="-21" type="line"/>
      <point x="724" y="-10" type="line"/>
      <point x="730" y="602" type="line"/>
      <point x="700" y="568" type="line"/>
      <point x="818" y="582" type="line"/>
      <point x="818" y="642" type="line"/>
      <point x="508" y="642" type="line"/>
      <point x="508" y="582" type="line"/>
      <point x="659" y="569" type="line"/>
      <point x="628" y="602" type="line"/>
      <point x="635" y="244" type="line"/>
      <point x="654" y="252" type="line"/>
      <point x="297" y="642" type="line"/>
      <point x="33" y="642" type="line"/>
      <point x="33" y="582" type="line"/>
      <point x="161" y="568" type="line"/>
      <point x="131" y="602" type="line"/>
      <point x="128" y="40" type="line"/>
      <point x="158" y="74" type="line"/>
      <point x="30" y="60" type="line"/>
    </contour>
    <contour>
      <point x="429" y="0" type="move" name="bottom"/>
    </contour>
    <contour>
      <point x="429" y="642" type="move" name="topuc"/>
    </contour>
  </outline>
</glyph>
<glyph name="O" format="1">
  <advance width="757"/>
  <unicode hex="004F"/>
  <outline>
    <contour>
      <point x="396" y="654" type="curve" smooth="yes"/>
      <point x="191" y="654"/>
      <point x="40" y="510"/>
      <point x="40" y="313" type="curve" smooth="yes"/>
      <point x="40" y="124"/>
      <point x="176" y="-15"/>
      <point x="362" y="-15" type="curve" smooth="yes"/>
      <point x="567" y="-15"/>
      <point x="717" y="130"/>
      <point x="717" y="328" type="curve" smooth="yes"/>
      <point x="717" y="516"/>
      <point x="581" y="654"/>
    </contour>
    <contour>
      <point x="391" y="63" type="curve" smooth="yes"/>
      <point x="293" y="60"/>
      <point x="234" y="148"/>
      <point x="227" y="310" type="curve" smooth="yes"/>
      <point x="222" y="480"/>
      <point x="272" y="576"/>
      <point x="366" y="577" type="curve" smooth="yes"/>
      <point x="459" y="580"/>
      <point x="514" y="491"/>
      <point x="521" y="329" type="curve" smooth="yes"/>
      <point x="528" y="161"/>
      <point x="481" y="66"/>
    </contour>
    <contour>
      <point x="378.0" y="0.0" type="move" name="bottom"/>
    </contour>
    <contour>
      <point x="449.0" y="0.0" type="move" name="ogonek"/>
    </contour>
    <contour>
      <point x="378.0" y="642.0" type="move" name="topuc"/>
    </contour>
  </outline>
</glyph>
<glyph name="Q" format="1">
  <advance width="757"/>
  <unicode hex="0051"/>
  <outline>
    <contour>
      <point x="406" y="-8" type="line"/>
      <point x="515" y="-106" type="line" smooth="yes"/>
      <point x="561" y="-148"/>
      <point x="610" y="-178"/>
      <point x="672" y="-178" type="curve" smooth="yes"/>
      <point x="724" y="-178"/>
      <point x="777" y="-156"/>
      <point x="810" y="-121" type="curve"/>
      <point x="805" y="-64" type="line"/>
      <point x="725.0" y="-76.0"/>
      <point x="629" y="-56"/>
      <point x="560" y="-13" type="curve" smooth="yes"/>
      <point x="433" y="67" type="line"/>
    </contour>
    <component base="O"/>
  </outline>
</glyph>
<glyph name="R" format="1">
  <advance width="748"/>
  <unicode hex="0052"/>
  <outline>
    <contour>
      <point x="32" y="0" type="line"/>
      <point x="398" y="0" type="line"/>
      <point x="398" y="60" type="line"/>
      <point x="270" y="74" type="line"/>
      <point x="300" y="40" type="line"/>
      <point x="300" y="281" type="line"/>
      <point x="337" y="281" type="line" smooth="yes"/>
      <point x="489" y="281"/>
      <point x="635" y="325"/>
      <point x="635" y="465" type="curve" smooth="yes"/>
      <point x="635" y="609"/>
      <point x="487" y="645"/>
      <point x="357" y="644" type="curve" smooth="yes"/>
      <point x="32" y="642" type="line"/>
      <point x="32" y="582" type="line"/>
      <point x="160" y="568" type="line"/>
      <point x="130" y="595" type="line"/>
      <point x="130" y="40" type="line"/>
      <point x="160" y="74" type="line"/>
      <point x="32" y="60" type="line"/>
    </contour>
    <contour>
      <point x="639" y="-11" type="curve" smooth="yes"/>
      <point x="673" y="-11"/>
      <point x="711" y="-6"/>
      <point x="740" y="1" type="curve"/>
      <point x="740" y="59" type="line"/>
      <point x="691" y="66"/>
      <point x="661" y="82"/>
      <point x="631" y="121" type="curve" smooth="yes"/>
      <point x="465" y="334" type="line"/>
      <point x="337" y="300" type="line"/>
      <point x="452" y="90" type="line" smooth="yes"/>
      <point x="504" y="-5"/>
      <point x="550" y="-11"/>
    </contour>
    <contour>
      <point x="363" y="336" type="curve" smooth="yes"/>
      <point x="312" y="336"/>
      <point x="300" y="350"/>
      <point x="300" y="396" type="curve" smooth="yes"/>
      <point x="300" y="565" type="line"/>
      <point x="333" y="565" type="line" smooth="yes"/>
      <point x="394" y="565"/>
      <point x="468" y="545"/>
      <point x="468" y="458" type="curve" smooth="yes"/>
      <point x="468" y="387"/>
      <point x="431" y="336"/>
    </contour>
    <contour>
      <point x="361" y="642" type="move" name="topuc"/>
    </contour>
    <contour>
      <point x="361" y="0" type="move" name="bottom"/>
    </contour>
  </outline>
</glyph>
<glyph name="Z" format="1">
  <advance width="630"/>
  <unicode hex="005A"/>
  <outline>
    <contour>
      <point x="441" y="88" type="curve" smooth="yes"/>
      <point x="167" y="88" type="line"/>
      <point x="215" y="37" type="line"/>
      <point x="593" y="596" type="line"/>
      <point x="593" y="642" type="line"/>
      <point x="137" y="642" type="line"/>
      <point x="50" y="652" type="line"/>
      <point x="40" y="413" type="line"/>
      <point x="100" y="413" type="line"/>
      <point x="145" y="552" type="line"/>
      <point x="449" y="552" type="line"/>
      <point x="404" y="605" type="line"/>
      <point x="30" y="50" type="line"/>
      <point x="30" y="0" type="line"/>
      <point x="580" y="0" type="line"/>
      <point x="616" y="278" type="line"/>
      <point x="556" y="278" type="line"/>
      <point x="491" y="120" type="line" smooth="yes"/>
      <point x="483" y="100"/>
      <point x="466" y="88"/>
    </contour>
    <contour>
      <point x="315.0" y="642.0" type="move" name="topuc"/>
    </contour>
  </outline>
</glyph>
<glyph name="bracketright" format="1">
  <advance width="289"/>
  <unicode hex="005D"/>
  <outline>
    <contour>
      <point x="133" y="-79" type="line"/>
      <point x="20" y="-95" type="line"/>
      <point x="20" y="-140" type="line"/>
      <point x="239" y="-140" type="line"/>
      <point x="239" y="725" type="line"/>
      <point x="20" y="725" type="line"/>
      <point x="20" y="680" type="line"/>
      <point x="133" y="664" type="line"/>
    </contour>
  </outline>
</glyph>
<glyph name="grave" format="1">
  <advance width="258"/>
  <unicode hex="0060"/>
  <outline>
    <contour>
      <point x="171" y="680" type="line"/>
      <point x="21" y="684" type="line"/>
      <point x="21" y="677" type="line"/>
      <point x="182" y="514" type="line"/>
      <point x="208" y="528" type="line"/>
    </contour>
    <contour>
      <point x="187" y="464" type="move" name="_toplc"/>
    </contour>
  </outline>
</glyph>
<glyph name="a" format="1">
  <advance width="500"/>
  <unicode hex="0061"/>
  <outline>
    <contour>
      <point x="311" y="264" type="line"/>
      <point x="157" y="237" type="line" smooth="yes"/>
      <point x="60" y="220"/>
      <point x="25" y="168"/>
      <point x="25" y="106" type="curve" smooth="yes"/>
      <point x="25" y="38"/>
      <point x="80" y="-7"/>
      <point x="145" y="-7" type="curve" smooth="yes"/>
      <point x="190" y="-7"/>
      <point x="232" y="12"/>
      <point x="280" y="76" type="curve"/>
      <point x="282" y="76" type="line"/>
      <point x="291" y="16"/>
      <point x="339" y="-7"/>
      <point x="386" y="-7" type="curve" smooth="yes"/>
      <point x="423" y="-7"/>
      <point x="479" y="8"/>
      <point x="516" y="54" type="curve"/>
      <point x="511" y="92" type="line"/>
      <point x="494" y="83"/>
      <point x="478" y="78"/>
      <point x="463" y="78" type="curve" smooth="yes"/>
      <point x="443" y="78"/>
      <point x="431" y="90"/>
      <point x="431" y="115" type="curve" smooth="yes"/>
      <point x="431" y="314" type="line" smooth="yes"/>
      <point x="431" y="425"/>
      <point x="381" y="474"/>
      <point x="251" y="474" type="curve" smooth="yes"/>
      <point x="162" y="474"/>
      <point x="99" y="445"/>
      <point x="51" y="421" type="curve"/>
      <point x="51" y="340" type="line"/>
      <point x="106" y="363"/>
      <point x="171" y="367"/>
      <point x="211" y="367" type="curve" smooth="yes"/>
      <point x="268" y="367"/>
      <point x="281" y="347"/>
      <point x="281" y="298" type="curve" smooth="yes"/>
      <point x="281" y="119" type="line"/>
      <point x="255" y="93"/>
      <point x="240" y="85"/>
      <point x="218" y="85" type="curve" smooth="yes"/>
      <point x="189" y="85"/>
      <point x="162" y="103"/>
      <point x="162" y="133" type="curve" smooth="yes"/>
      <point x="162" y="158"/>
      <point x="174" y="169"/>
      <point x="212" y="178" type="curve" smooth="yes"/>
      <point x="311" y="201" type="line"/>
    </contour>
    <contour>
      <point x="251" y="464" type="move" name="toplc"/>
    </contour>
    <contour>
      <point x="391" y="0" type="move" name="ogonek"/>
    </contour>
    <contour>
      <point x="251" y="0" type="move" name="bottom"/>
    </contour>
  </outline>
</glyph>
<glyph name="d" format="1">
  <advance width="585"/>
  <unicode hex="0064"/>
  <outline>
    <contour>
      <point x="208" y="-13" type="curve" smooth="yes"/>
      <point x="244" y="-13"/>
      <point x="302" y="2"/>
      <point x="340" y="49" type="curve" smooth="yes"/>
      <point x="380" y="98" type="line"/>
      <point x="380" y="126" type="line"/>
      <point x="344" y="105" type="line" smooth="yes"/>
      <point x="332" y="98"/>
      <point x="305" y="93"/>
      <point x="290" y="93" type="curve" smooth="yes"/>
      <point x="221" y="93"/>
      <point x="183" y="142"/>
      <point x="183" y="214" type="curve" smooth="yes"/>
      <point x="183" y="340"/>
      <point x="234" y="412"/>
      <point x="301" y="412" type="curve" smooth="yes"/>
      <point x="329" y="412"/>
      <point x="377" y="392"/>
      <point x="420" y="362" type="curve"/>
      <point x="448" y="426" type="line"/>
      <point x="392" y="457"/>
      <point x="344" y="474"/>
      <point x="289" y="474" type="curve" smooth="yes"/>
      <point x="133" y="474"/>
      <point x="25" y="352"/>
      <point x="25" y="198" type="curve" smooth="yes"/>
      <point x="25" y="65"/>
      <point x="99" y="-13"/>
    </contour>
    <contour>
      <point x="356" y="-13" type="line"/>
      <point x="574" y="0" type="line"/>
      <point x="574" y="55" type="line"/>
      <point x="481" y="62" type="line"/>
      <point x="511" y="30" type="line"/>
      <point x="511" y="580" type="line"/>
      <point x="521" y="676" type="line"/>
      <point x="290" y="638" type="line"/>
      <point x="290" y="583" type="line"/>
      <point x="385" y="565" type="line"/>
      <point x="356" y="602" type="line"/>
    </contour>
    <contour>
      <point x="548.0" y="673.0" type="move" name="right"/>
    </contour>
  </outline>
</glyph>
<glyph name="f" format="1">
  <advance width="349"/>
  <unicode hex="0066"/>
  <outline>
    <contour>
      <point x="7" y="0" type="line"/>
      <point x="316" y="0" type="line"/>
      <point x="316" y="55" type="line"/>
      <point x="199" y="62" type="line"/>
      <point x="229" y="30" type="line"/>
      <point x="229" y="389" type="line"/>
      <point x="345" y="389" type="line"/>
      <point x="345" y="464" type="line"/>
      <point x="229" y="464" type="line"/>
      <point x="219" y="536" type="line" smooth="yes"/>
      <point x="213" y="580"/>
      <point x="236" y="624"/>
      <point x="295" y="596" type="curve" smooth="yes"/>
      <point x="398" y="548" type="line"/>
      <point x="432" y="638"/>
      <point x="428" y="683"/>
      <point x="311" y="683" type="curve" smooth="yes"/>
      <point x="185" y="683"/>
      <point x="97" y="606"/>
      <point x="80" y="480" type="curve" smooth="yes"/>
      <point x="78" y="465" type="line"/>
      <point x="1" y="449" type="line"/>
      <point x="1" y="389" type="line"/>
      <point x="74" y="389" type="line"/>
      <point x="74" y="30" type="line"/>
      <point x="104" y="62" type="line"/>
      <point x="7" y="55" type="line"/>
    </contour>
  </outline>
</glyph>
<glyph name="g" format="1">
  <advance width="563.0"/>
  <unicode hex="0067"/>
  <outline>
    <contour>
      <point x="286" y="226" type="curve" smooth="yes"/>
      <point x="241" y="220"/>
      <point x="204" y="251"/>
      <point x="197" y="300" type="curve" smooth="yes"/>
      <point x="189" y="355"/>
      <point x="214" y="401"/>
      <point x="254" y="407" type="curve" smooth="yes"/>
      <point x="299" y="413"/>
      <point x="337" y="379"/>
      <point x="344" y="326" type="curve" smooth="yes"/>
      <point x="351" y="275"/>
      <point x="326" y="232"/>
    </contour>
    <contour>
      <point x="232" y="-219" type="curve" smooth="yes"/>
      <point x="405" y="-219"/>
      <point x="544.0" y="-127.0"/>
      <point x="544" y="-12" type="curve" smooth="yes"/>
      <point x="544" y="64"/>
      <point x="491" y="97"/>
      <point x="376" y="100" type="curve" smooth="yes"/>
      <point x="201" y="104" type="line" smooth="yes"/>
      <point x="173" y="105"/>
      <point x="159" y="124"/>
      <point x="180" y="142" type="curve" smooth="yes"/>
      <point x="230" y="185" type="line"/>
      <point x="204" y="190" type="line"/>
      <point x="90" y="138"/>
      <point x="45" y="102"/>
      <point x="45" y="62" type="curve" smooth="yes"/>
      <point x="45" y="14"/>
      <point x="101" y="-18"/>
      <point x="194" y="-21" type="curve" smooth="yes"/>
      <point x="368" y="-27" type="line" smooth="yes"/>
      <point x="408" y="-28"/>
      <point x="424" y="-39"/>
      <point x="424" y="-66" type="curve" smooth="yes"/>
      <point x="424.0" y="-113.0"/>
      <point x="364" y="-145"/>
      <point x="259" y="-145" type="curve" smooth="yes"/>
      <point x="182" y="-145"/>
      <point x="143" y="-127"/>
      <point x="143" y="-76" type="curve" smooth="yes"/>
      <point x="143" y="-53"/>
      <point x="150" y="-26"/>
      <point x="182" y="-5" type="curve"/>
      <point x="159" y="-3" type="line"/>
      <point x="74" y="-31"/>
      <point x="20" y="-63"/>
      <point x="20" y="-117" type="curve" smooth="yes"/>
      <point x="20" y="-179"/>
      <point x="97" y="-219"/>
    </contour>
    <contour>
      <point x="259" y="159" type="curve" smooth="yes"/>
      <point x="399" y="160"/>
      <point x="495" y="223"/>
      <point x="495" y="319" type="curve" smooth="yes"/>
      <point x="495" y="371"/>
      <point x="468" y="414"/>
      <point x="418" y="442" type="curve"/>
      <point x="382" y="413" type="line"/>
      <point x="573" y="393" type="line"/>
      <point x="573" y="477" type="line"/>
      <point x="280" y="474" type="line" smooth="yes"/>
      <point x="141" y="473"/>
      <point x="44" y="406"/>
      <point x="44" y="311" type="curve" smooth="yes"/>
      <point x="44" y="218"/>
      <point x="133" y="158"/>
    </contour>
    <contour>
      <point x="279.0" y="464.0" type="move" name="toplc"/>
    </contour>
  </outline>
</glyph>
<glyph name="h" format="1">
  <advance width="600"/>
  <unicode hex="0068"/>
  <outline>
    <contour>
      <point x="15" y="0" type="line"/>
      <point x="280" y="0" type="line"/>
      <point x="280" y="55" type="line"/>
      <point x="202" y="63" type="line"/>
      <point x="232" y="30" type="line"/>
      <point x="232" y="326" type="line"/>
      <point x="247" y="341" type="line" smooth="yes"/>
      <point x="266" y="360"/>
      <point x="292" y="371"/>
      <point x="314" y="371" type="curve" smooth="yes"/>
      <point x="355" y="371"/>
      <point x="376" y="350"/>
      <point x="376" y="309" type="curve" smooth="yes"/>
      <point x="376" y="30" type="line"/>
      <point x="406" y="63" type="line"/>
      <point x="324" y="55" type="line"/>
      <point x="324" y="0" type="line"/>
      <point x="589" y="0" type="line"/>
      <point x="589" y="55" type="line"/>
      <point x="501" y="63" type="line"/>
      <point x="531" y="30" type="line"/>
      <point x="531" y="346" type="line" smooth="yes"/>
      <point x="531" y="426"/>
      <point x="473" y="474"/>
      <point x="393" y="474" type="curve" smooth="yes"/>
      <point x="327" y="474"/>
      <point x="271" y="437"/>
      <point x="229" y="385" type="curve" smooth="yes"/>
      <point x="204" y="354" type="line"/>
      <point x="232" y="366" type="line"/>
      <point x="232" y="582" type="line"/>
      <point x="242" y="676" type="line"/>
      <point x="11" y="638" type="line"/>
      <point x="11" y="583" type="line"/>
      <point x="106" y="567" type="line"/>
      <point x="77" y="603" type="line"/>
      <point x="77" y="30" type="line"/>
      <point x="107" y="63" type="line"/>
      <point x="15" y="55" type="line"/>
    </contour>
    <contour>
      <point x="179.0" y="642.0" type="move" name="topuc"/>
    </contour>
  </outline>
</glyph>
<glyph name="i" format="1">
  <advance width="302"/>
  <unicode hex="0069"/>
  <outline>
    <contour>
      <point x="149" y="517" type="curve" smooth="yes"/>
      <point x="195" y="517"/>
      <point x="230" y="553"/>
      <point x="230" y="599" type="curve" smooth="yes"/>
      <point x="230" y="644"/>
      <point x="195" y="679"/>
      <point x="149" y="679" type="curve" smooth="yes"/>
      <point x="104" y="679"/>
      <point x="69" y="644"/>
      <point x="69" y="599" type="curve" smooth="yes"/>
      <point x="69" y="553"/>
      <point x="104" y="517"/>
    </contour>
    <contour>
      <point x="12" y="0" type="line"/>
      <point x="291" y="0" type="line"/>
      <point x="291" y="55" type="line"/>
      <point x="199" y="63" type="line"/>
      <point x="229" y="30" type="line"/>
      <point x="229" y="375" type="line"/>
      <point x="239" y="474" type="line"/>
      <point x="11" y="459" type="line"/>
      <point x="11" y="404" type="line"/>
      <point x="103" y="382" type="line"/>
      <point x="74" y="420" type="line"/>
      <point x="74" y="30" type="line"/>
      <point x="104" y="63" type="line"/>
      <point x="12" y="55" type="line"/>
    </contour>
    <contour>
      <point x="150.0" y="-1.0" type="move" name="bottom"/>
    </contour>
    <contour>
      <point x="203.0" y="0.0" type="move" name="ogonek"/>
    </contour>
  </outline>
</glyph>
<glyph name="j" format="1">
  <advance width="297"/>
  <unicode hex="006A"/>
  <outline>
    <contour>
      <point x="-20" y="-221" type="line"/>
      <point x="52" y="-206" type="line" smooth="yes"/>
      <point x="184" y="-179"/>
      <point x="228" y="-118"/>
      <point x="228" y="-19" type="curve" smooth="yes"/>
      <point x="228" y="375" type="line"/>
      <point x="238" y="474" type="line"/>
      <point x="10" y="459" type="line"/>
      <point x="10" y="404" type="line"/>
      <point x="102" y="382" type="line"/>
      <point x="73" y="420" type="line"/>
      <point x="73" y="-29" type="line" smooth="yes"/>
      <point x="73" y="-78"/>
      <point x="62" y="-102"/>
      <point x="26" y="-124" type="curve" smooth="yes"/>
      <point x="-41" y="-164" type="line"/>
    </contour>
    <contour>
      <point x="149" y="517" type="curve" smooth="yes"/>
      <point x="195" y="517"/>
      <point x="230" y="553"/>
      <point x="230" y="599" type="curve" smooth="yes"/>
      <point x="230" y="644"/>
      <point x="195" y="679"/>
      <point x="149" y="679" type="curve" smooth="yes"/>
      <point x="104" y="679"/>
      <point x="69" y="644"/>
      <point x="69" y="599" type="curve" smooth="yes"/>
      <point x="69" y="553"/>
      <point x="104" y="517"/>
    </contour>
  </outline>
</glyph>
<glyph name="k" format="1">
  <advance width="621"/>
  <unicode hex="006B"/>
  <outline>
    <contour>
      <point x="431" y="-4" type="line"/>
      <point x="621" y="-4" type="line"/>
      <point x="376" y="315" type="line"/>
      <point x="371" y="272" type="line"/>
      <point x="553" y="423" type="line"/>
      <point x="500" y="402" type="line"/>
      <point x="606" y="409" type="line"/>
      <point x="606" y="464" type="line"/>
      <point x="323" y="464" type="line"/>
      <point x="323" y="409" type="line"/>
      <point x="426" y="402" type="line"/>
      <point x="413" y="428" type="line"/>
      <point x="297" y="264" type="line"/>
      <point x="239" y="257" type="line"/>
      <point x="239" y="218" type="line"/>
      <point x="273" y="218" type="line"/>
    </contour>
    <contour>
      <point x="25" y="0" type="line"/>
      <point x="304" y="0" type="line"/>
      <point x="304" y="55" type="line"/>
      <point x="212" y="63" type="line"/>
      <point x="242" y="30" type="line"/>
      <point x="242" y="580" type="line"/>
      <point x="252" y="676" type="line"/>
      <point x="21" y="642" type="line"/>
      <point x="21" y="587" type="line"/>
      <point x="116" y="565" type="line"/>
      <point x="87" y="602" type="line"/>
      <point x="87" y="30" type="line"/>
      <point x="117" y="63" type="line"/>
      <point x="25" y="55" type="line"/>
    </contour>
    <contour>
      <point x="310.0" y="0.0" type="move" name="bottom"/>
    </contour>
  </outline>
</glyph>
<glyph name="m" format="1">
  <advance width="896"/>
  <unicode hex="006D"/>
  <outline>
    <contour>
      <point x="12" y="0" type="line"/>
      <point x="277" y="0" type="line"/>
      <point x="277" y="55" type="line"/>
      <point x="199" y="63" type="line"/>
      <point x="229" y="30" type="line"/>
      <point x="229" y="326" type="line"/>
      <point x="244" y="341" type="line" smooth="yes"/>
      <point x="263" y="360"/>
      <point x="289" y="371"/>
      <point x="311" y="371" type="curve" smooth="yes"/>
      <point x="352" y="371"/>
      <point x="373" y="350"/>
      <point x="373" y="309" type="curve" smooth="yes"/>
      <point x="373" y="30" type="line"/>
      <point x="403" y="63" type="line"/>
      <point x="321" y="55" type="line"/>
      <point x="321" y="0" type="line"/>
      <point x="576" y="0" type="line"/>
      <point x="576" y="55" type="line"/>
      <point x="498" y="63" type="line"/>
      <point x="528" y="30" type="line"/>
      <point x="528" y="346" type="line" smooth="yes"/>
      <point x="528" y="426"/>
      <point x="470" y="474"/>
      <point x="390" y="474" type="curve" smooth="yes"/>
      <point x="324" y="474"/>
      <point x="268" y="437"/>
      <point x="226" y="385" type="curve" smooth="yes"/>
      <point x="201" y="354" type="line"/>
      <point x="216" y="324" type="line"/>
      <point x="229" y="474" type="line"/>
      <point x="11" y="459" type="line"/>
      <point x="11" y="404" type="line"/>
      <point x="103" y="382" type="line"/>
      <point x="74" y="420" type="line"/>
      <point x="74" y="30" type="line"/>
      <point x="104" y="63" type="line"/>
      <point x="12" y="55" type="line"/>
    </contour>
    <contour>
      <point x="620" y="0" type="line"/>
      <point x="885" y="0" type="line"/>
      <point x="885" y="55" type="line"/>
      <point x="797" y="63" type="line"/>
      <point x="827" y="30" type="line"/>
      <point x="827" y="346" type="line" smooth="yes"/>
      <point x="827" y="426"/>
      <point x="769" y="474"/>
      <point x="689" y="474" type="curve" smooth="yes"/>
      <point x="623" y="474"/>
      <point x="567" y="437"/>
      <point x="525" y="385" type="curve" smooth="yes"/>
      <point x="500" y="354" type="line"/>
      <point x="528" y="326" type="line"/>
      <point x="543" y="341" type="line" smooth="yes"/>
      <point x="562" y="360"/>
      <point x="588" y="371"/>
      <point x="610" y="371" type="curve" smooth="yes"/>
      <point x="651" y="371"/>
      <point x="672" y="350"/>
      <point x="672" y="309" type="curve" smooth="yes"/>
      <point x="672" y="30" type="line"/>
      <point x="702" y="63" type="line"/>
      <point x="620" y="55" type="line"/>
    </contour>
  </outline>
</glyph>
<glyph name="n" format="1">
  <advance width="597"/>
  <unicode hex="006E"/>
  <outline>
    <contour>
      <point x="12" y="0" type="line"/>
      <point x="277" y="0" type="line"/>
      <point x="277" y="55" type="line"/>
      <point x="199" y="63" type="line"/>
      <point x="229" y="30" type="line"/>
      <point x="229" y="326" type="line"/>
      <point x="244" y="341" type="line" smooth="yes"/>
      <point x="263" y="360"/>
      <point x="289" y="371"/>
      <point x="311" y="371" type="curve" smooth="yes"/>
      <point x="352" y="371"/>
      <point x="373" y="350"/>
      <point x="373" y="309" type="curve" smooth="yes"/>
      <point x="373" y="30" type="line"/>
      <point x="403" y="63" type="line"/>
      <point x="321" y="55" type="line"/>
      <point x="321" y="0" type="line"/>
      <point x="586" y="0" type="line"/>
      <point x="586" y="55" type="line"/>
      <point x="498" y="63" type="line"/>
      <point x="528" y="30" type="line"/>
      <point x="528" y="346" type="line" smooth="yes"/>
      <point x="528" y="426"/>
      <point x="470" y="474"/>
      <point x="390" y="474" type="curve" smooth="yes"/>
      <point x="324" y="474"/>
      <point x="268" y="437"/>
      <point x="226" y="385" type="curve" smooth="yes"/>
      <point x="201" y="354" type="line"/>
      <point x="216" y="324" type="line"/>
      <point x="229" y="474" type="line"/>
      <point x="11" y="459" type="line"/>
      <point x="11" y="404" type="line"/>
      <point x="103" y="382" type="line"/>
      <point x="74" y="420" type="line"/>
      <point x="74" y="30" type="line"/>
      <point x="104" y="63" type="line"/>
      <point x="12" y="55" type="line"/>
    </contour>
    <contour>
      <point x="298.0" y="464.0" type="move" name="toplc"/>
    </contour>
    <contour>
      <point x="298.0" y="0.0" type="move" name="bottom"/>
    </contour>
  </outline>
</glyph>
<glyph name="p" format="1">
  <advance width="600"/>
  <unicode hex="0070"/>
  <outline>
    <contour>
      <point x="138" y="40" type="curve"/>
      <point x="166" y="104" type="line"/>
      <point x="207" y="72"/>
      <point x="248" y="66"/>
      <point x="291" y="66" type="curve" smooth="yes"/>
      <point x="378" y="66"/>
      <point x="406" y="147"/>
      <point x="406" y="234" type="curve" smooth="yes"/>
      <point x="406" y="339"/>
      <point x="352" y="371"/>
      <point x="311" y="371" type="curve" smooth="yes"/>
      <point x="289" y="371"/>
      <point x="270" y="366"/>
      <point x="248" y="350" type="curve" smooth="yes"/>
      <point x="205" y="318" type="line"/>
      <point x="229" y="366" type="line"/>
      <point x="229" y="-180" type="line"/>
      <point x="199" y="-148" type="line"/>
      <point x="309" y="-155" type="line"/>
      <point x="309" y="-210" type="line"/>
      <point x="12" y="-210" type="line"/>
      <point x="12" y="-155" type="line"/>
      <point x="104" y="-147" type="line"/>
      <point x="74" y="-180" type="line"/>
      <point x="74" y="420" type="line"/>
      <point x="103" y="382" type="line"/>
      <point x="11" y="404" type="line"/>
      <point x="11" y="459" type="line"/>
      <point x="229" y="474" type="line"/>
      <point x="212" y="341" type="line"/>
      <point x="195" y="349" type="line"/>
      <point x="240" y="396" type="line" smooth="yes"/>
      <point x="287" y="445"/>
      <point x="331" y="474"/>
      <point x="390" y="474" type="curve" smooth="yes"/>
      <point x="470" y="474"/>
      <point x="569" y="413"/>
      <point x="569" y="252" type="curve" smooth="yes"/>
      <point x="569" y="99"/>
      <point x="451" y="-15"/>
      <point x="299" y="-15" type="curve" smooth="yes"/>
      <point x="239" y="-15"/>
      <point x="195" y="-7"/>
    </contour>
  </outline>
</glyph>
<glyph name="q" format="1">
  <advance width="579"/>
  <unicode hex="0071"/>
  <outline>
    <contour>
      <point x="275" y="-210" type="line"/>
      <point x="582" y="-210" type="line"/>
      <point x="582" y="-155" type="line"/>
      <point x="480" y="-147" type="line"/>
      <point x="510" y="-180" type="line"/>
      <point x="510" y="352" type="line"/>
      <point x="530" y="488" type="line"/>
      <point x="502" y="488" type="line"/>
      <point x="355" y="397" type="line"/>
      <point x="355" y="-180" type="line"/>
      <point x="385" y="-149" type="line"/>
      <point x="275" y="-155" type="line"/>
    </contour>
    <contour>
      <point x="208" y="-13" type="curve" smooth="yes"/>
      <point x="244" y="-13"/>
      <point x="302" y="2"/>
      <point x="340" y="49" type="curve" smooth="yes"/>
      <point x="380" y="98" type="line"/>
      <point x="380" y="126" type="line"/>
      <point x="344" y="105" type="line" smooth="yes"/>
      <point x="332" y="98"/>
      <point x="305" y="93"/>
      <point x="290" y="93" type="curve" smooth="yes"/>
      <point x="221" y="93"/>
      <point x="183" y="142"/>
      <point x="183" y="218" type="curve" smooth="yes"/>
      <point x="183" y="340"/>
      <point x="234" y="412"/>
      <point x="301" y="412" type="curve" smooth="yes"/>
      <point x="329" y="412"/>
      <point x="377" y="392"/>
      <point x="420" y="362" type="curve"/>
      <point x="448" y="426" type="line"/>
      <point x="392" y="457"/>
      <point x="344" y="474"/>
      <point x="289" y="474" type="curve" smooth="yes"/>
      <point x="133" y="474"/>
      <point x="25" y="352"/>
      <point x="25" y="198" type="curve" smooth="yes"/>
      <point x="25" y="65"/>
      <point x="99" y="-13"/>
    </contour>
  </outline>
</glyph>
<glyph name="t" format="1">
  <advance width="366"/>
  <unicode hex="0074"/>
  <outline>
    <contour>
      <point x="194" y="-16" type="curve" smooth="yes"/>
      <point x="258" y="-16"/>
      <point x="319" y="8"/>
      <point x="362" y="51" type="curve"/>
      <point x="352" y="99" type="line"/>
      <point x="312" y="84"/>
      <point x="282" y="79"/>
      <point x="266" y="79" type="curve" smooth="yes"/>
      <point x="239" y="79"/>
      <point x="229" y="91"/>
      <point x="229" y="125" type="curve" smooth="yes"/>
      <point x="229" y="390" type="line"/>
      <point x="345" y="390" type="line"/>
      <point x="345" y="464" type="line"/>
      <point x="227" y="464" type="line"/>
      <point x="227" y="596" type="line"/>
      <point x="158" y="596" type="line"/>
      <point x="87" y="464" type="line"/>
      <point x="1" y="449" type="line"/>
      <point x="1" y="390" type="line"/>
      <point x="74" y="390" type="line"/>
      <point x="74" y="102" type="line" smooth="yes"/>
      <point x="74" y="25"/>
      <point x="115" y="-16"/>
    </contour>
    <contour>
      <point x="194.0" y="0.0" type="move" name="bottom"/>
    </contour>
    <contour>
      <point x="255.0" y="671.0" type="move" name="right"/>
    </contour>
  </outline>
</glyph>
<glyph name="u" format="1">
  <advance width="610"/>
  <unicode hex="0075"/>
  <outline>
    <contour>
      <point x="207" y="-18" type="curve" smooth="yes"/>
      <point x="256" y="-18"/>
      <point x="301.0" y="6.0"/>
      <point x="348.0" y="54.0" type="curve" smooth="yes"/>
      <point x="386.0" y="92.0" type="line"/>
      <point x="386.0" y="132.0" type="line"/>
      <point x="352.0" y="108.0" type="line" smooth="yes"/>
      <point x="326.0" y="90.0"/>
      <point x="306.0" y="85.0"/>
      <point x="291.0" y="85.0" type="curve" smooth="yes"/>
      <point x="246.0" y="85.0"/>
      <point x="229" y="103"/>
      <point x="229.0" y="152.0" type="curve" smooth="yes"/>
      <point x="229" y="474" type="line"/>
      <point x="11" y="459" type="line"/>
      <point x="11" y="404" type="line"/>
      <point x="130" y="371" type="line"/>
      <point x="74" y="427" type="line"/>
      <point x="74.0" y="104.0" type="line" smooth="yes"/>
      <point x="74" y="29"/>
      <point x="125" y="-18"/>
    </contour>
    <contour>
      <point x="372" y="-18" type="line"/>
      <point x="593" y="0" type="line"/>
      <point x="593" y="54" type="line"/>
      <point x="527.0" y="60.0" type="line"/>
      <point x="527" y="474" type="line"/>
      <point x="309" y="459" type="line"/>
      <point x="309" y="404" type="line"/>
      <point x="415" y="374" type="line"/>
      <point x="372" y="416" type="line"/>
    </contour>
    <contour>
      <point x="512.0" y="0.0" type="move" name="ogonek"/>
    </contour>
    <contour>
      <point x="305.0" y="0.0" type="move" name="bottom"/>
    </contour>
    <contour>
      <point x="305.0" y="460.0" type="move" name="toplc"/>
    </contour>
    <contour>
      <point x="472.0" y="430.0" type="move" name="right"/>
    </contour>
  </outline>
</glyph>
<glyph name="v" format="1">
  <advance width="527"/>
  <unicode hex="0076"/>
  <outline>
    <contour>
      <point x="230" y="-20" type="line"/>
      <point x="297" y="-20" type="line"/>
      <point x="492" y="439" type="line"/>
      <point x="450" y="396" type="line"/>
      <point x="527" y="409" type="line"/>
      <point x="527" y="464" type="line"/>
      <point x="331" y="464" type="line"/>
      <point x="331" y="409" type="line"/>
      <point x="418" y="397" type="line"/>
      <point x="398" y="439" type="line"/>
      <point x="286" y="99" type="line"/>
      <point x="326" y="99" type="line"/>
      <point x="210" y="440" type="line"/>
      <point x="185" y="397" type="line"/>
      <point x="281" y="409" type="line"/>
      <point x="281" y="464" type="line"/>
      <point x="0" y="464" type="line"/>
      <point x="0" y="409" type="line"/>
      <point x="82" y="396" type="line"/>
      <point x="41" y="439" type="line"/>
    </contour>
  </outline>
</glyph>
<glyph name="y" format="1">
  <advance width="598"/>
  <unicode hex="0079"/>
  <outline>
    <contour>
      <point x="79" y="-215" type="line"/>
      <point x="252" y="-215" type="line"/>
      <point x="558" y="428" type="line"/>
      <point x="515" y="397" type="line"/>
      <point x="598" y="409" type="line"/>
      <point x="598" y="464" type="line"/>
      <point x="363" y="464" type="line"/>
      <point x="363" y="409" type="line"/>
      <point x="465" y="397" type="line"/>
      <point x="445" y="429" type="line"/>
      <point x="324" y="89" type="line"/>
      <point x="344" y="89" type="line"/>
      <point x="219" y="429" type="line"/>
      <point x="199" y="397" type="line"/>
      <point x="303" y="409" type="line"/>
      <point x="303" y="464" type="line"/>
      <point x="0" y="464" type="line"/>
      <point x="0" y="409" type="line"/>
      <point x="82" y="396" type="line"/>
      <point x="40" y="428" type="line"/>
      <point x="249" y="-32" type="line"/>
      <point x="255" y="19" type="line"/>
    </contour>
    <contour>
      <point x="333.0" y="464.0" type="move" name="toplc"/>
    </contour>
    <contour>
      <point x="390.0" y="-44.0" type="move" name="bottom"/>
    </contour>
  </outline>
</glyph>
<glyph name="braceleft" format="1">
  <advance width="313.0"/>
  <unicode hex="007B"/>
  <outline>
    <contour>
      <point x="303" y="-144" type="curve"/>
      <point x="303" y="-94" type="line"/>
      <point x="247" y="-94"/>
      <point x="215" y="-50"/>
      <point x="215" y="6" type="curve" smooth="yes"/>
      <point x="215" y="107" type="line" smooth="yes"/>
      <point x="215" y="187"/>
      <point x="198" y="268"/>
      <point x="121" y="291" type="curve"/>
      <point x="121" y="295" type="line"/>
      <point x="198" y="316"/>
      <point x="215" y="399"/>
      <point x="215" y="479" type="curve" smooth="yes"/>
      <point x="215" y="581" type="line" smooth="yes"/>
      <point x="215" y="638"/>
      <point x="246" y="681"/>
      <point x="303" y="681" type="curve"/>
      <point x="303" y="730" type="line"/>
      <point x="196" y="755"/>
      <point x="96" y="698"/>
      <point x="107" y="589" type="curve" smooth="yes"/>
      <point x="122" y="433" type="line" smooth="yes"/>
      <point x="126" y="390"/>
      <point x="118" y="344"/>
      <point x="77" y="331" type="curve" smooth="yes"/>
      <point x="30" y="317" type="line"/>
      <point x="30" y="270" type="line"/>
      <point x="75" y="260" type="line" smooth="yes"/>
      <point x="120" y="250"/>
      <point x="126" y="199"/>
      <point x="122" y="153" type="curve" smooth="yes"/>
      <point x="107" y="-1" type="line" smooth="yes"/>
      <point x="97" y="-110"/>
      <point x="195" y="-166"/>
    </contour>
  </outline>
</glyph>
<glyph name="braceright" format="1">
  <advance width="313"/>
  <unicode hex="007D"/>
  <outline>
    <contour>
      <point x="10" y="-144" type="curve"/>
      <point x="10" y="-94" type="line"/>
      <point x="66" y="-94"/>
      <point x="98" y="-50"/>
      <point x="98" y="6" type="curve" smooth="yes"/>
      <point x="98" y="107" type="line" smooth="yes"/>
      <point x="98" y="187"/>
      <point x="115" y="268"/>
      <point x="192" y="291" type="curve"/>
      <point x="192" y="295" type="line"/>
      <point x="115" y="316"/>
      <point x="98" y="399"/>
      <point x="98" y="479" type="curve" smooth="yes"/>
      <point x="98" y="581" type="line" smooth="yes"/>
      <point x="98" y="638"/>
      <point x="67" y="681"/>
      <point x="10" y="681" type="curve"/>
      <point x="10" y="730" type="line"/>
      <point x="117" y="755"/>
      <point x="217" y="698"/>
      <point x="206" y="589" type="curve" smooth="yes"/>
      <point x="191" y="433" type="line" smooth="yes"/>
      <point x="187" y="390"/>
      <point x="195" y="344"/>
      <point x="236" y="331" type="curve" smooth="yes"/>
      <point x="283" y="317" type="line"/>
      <point x="283" y="270" type="line"/>
      <point x="238" y="260" type="line" smooth="yes"/>
      <point x="193" y="250"/>
      <point x="187" y="199"/>
      <point x="191" y="153" type="curve" smooth="yes"/>
      <point x="206" y="-1" type="line" smooth="yes"/>
      <point x="216" y="-110"/>
      <point x="118" y="-166"/>
    </contour>
  </outline>
</glyph>
<glyph name="sterling" format="1">
  <advance width="587"/>
  <unicode hex="00A3"/>
  <outline>
    <contour>
      <point x="31" y="291" type="line"/>
      <point x="452" y="301" type="line"/>
      <point x="458" y="367" type="line"/>
      <point x="37" y="357" type="line"/>
    </contour>
    <contour>
      <point x="412" y="636" type="line"/>
      <point x="464" y="456" type="line"/>
      <point x="527" y="456" type="line"/>
      <point x="515" y="646" type="line"/>
    </contour>
    <contour>
      <point x="20" y="0" type="line"/>
      <point x="534" y="0" type="line"/>
      <point x="571" y="242" type="line"/>
      <point x="509" y="242" type="line"/>
      <point x="440" y="117" type="line" smooth="yes"/>
      <point x="431" y="101"/>
      <point x="418" y="89"/>
      <point x="400" y="88" type="curve" smooth="yes"/>
      <point x="153" y="79" type="line"/>
      <point x="155" y="39" type="line"/>
      <point x="238" y="83"/>
      <point x="301" y="156"/>
      <point x="301" y="249" type="curve" smooth="yes"/>
      <point x="301" y="329"/>
      <point x="269" y="392"/>
      <point x="269" y="460" type="curve" smooth="yes"/>
      <point x="269" y="528"/>
      <point x="310" y="561"/>
      <point x="377" y="561" type="curve" smooth="yes"/>
      <point x="398" y="561"/>
      <point x="418" y="558"/>
      <point x="438" y="553" type="curve"/>
      <point x="484" y="627" type="line"/>
      <point x="436" y="634"/>
      <point x="388" y="644"/>
      <point x="339" y="644" type="curve" smooth="yes"/>
      <point x="210" y="644"/>
      <point x="97" y="583"/>
      <point x="97" y="466" type="curve" smooth="yes"/>
      <point x="97" y="385"/>
      <point x="144" y="305"/>
      <point x="144" y="215" type="curve" smooth="yes"/>
      <point x="144" y="138"/>
      <point x="96" y="73"/>
      <point x="20" y="61" type="curve"/>
    </contour>
  </outline>
</glyph>
<glyph name="currency" format="1">
  <advance width="484"/>
  <unicode hex="00A4"/>
  <outline>
    <contour>
      <point x="242" y="149" type="curve" smooth="yes"/>
      <point x="335" y="149"/>
      <point x="403" y="213"/>
      <point x="403" y="306" type="curve" smooth="yes"/>
      <point x="403" y="399"/>
      <point x="335" y="463"/>
      <point x="242" y="463" type="curve" smooth="yes"/>
      <point x="149" y="463"/>
      <point x="82" y="399"/>
      <point x="82" y="306" type="curve" smooth="yes"/>
      <point x="82" y="213"/>
      <point x="149" y="149"/>
    </contour>
    <contour>
      <point x="241" y="241" type="curve" smooth="yes"/>
      <point x="203" y="241"/>
      <point x="173" y="268"/>
      <point x="173" y="306" type="curve" smooth="yes"/>
      <point x="173" y="345"/>
      <point x="203" y="371"/>
      <point x="241" y="371" type="curve" smooth="yes"/>
      <point x="280" y="371"/>
      <point x="307" y="345"/>
      <point x="307" y="306" type="curve" smooth="yes"/>
      <point x="307" y="268"/>
      <point x="280" y="241"/>
    </contour>
    <contour>
      <point x="119" y="355" type="line"/>
      <point x="190" y="426" type="line"/>
      <point x="86" y="529" type="line"/>
      <point x="16" y="459" type="line"/>
    </contour>
    <contour>
      <point x="396" y="78" type="line"/>
      <point x="466" y="148" type="line"/>
      <point x="363" y="252" type="line"/>
      <point x="292" y="181" type="line"/>
    </contour>
    <contour>
      <point x="87" y="78" type="line"/>
      <point x="190" y="182" type="line"/>
      <point x="120" y="252" type="line"/>
      <point x="16" y="149" type="line"/>
    </contour>
    <contour>
      <point x="362" y="355" type="line"/>
      <point x="466" y="458" type="line"/>
      <point x="395" y="529" type="line"/>
      <point x="292" y="425" type="line"/>
    </contour>
  </outline>
</glyph>
<glyph name="yen" format="1">
  <advance width="668"/>
  <unicode hex="00A5"/>
  <outline>
    <contour>
      <point x="84" y="141" type="line"/>
      <point x="589" y="141" type="line"/>
      <point x="595" y="207" type="line"/>
      <point x="90" y="207" type="line"/>
    </contour>
    <contour>
      <point x="84" y="271" type="line"/>
      <point x="589" y="271" type="line"/>
      <point x="595" y="337" type="line"/>
      <point x="90" y="337" type="line"/>
    </contour>
    <contour>
      <point x="152" y="0" type="line"/>
      <point x="519" y="0" type="line"/>
      <point x="519" y="60" type="line"/>
      <point x="390" y="73" type="line"/>
      <point x="420" y="40" type="line"/>
      <point x="420" y="272" type="line"/>
      <point x="606" y="591" type="line"/>
      <point x="561" y="568" type="line"/>
      <point x="678" y="582" type="line"/>
      <point x="678" y="642" type="line"/>
      <point x="413" y="642" type="line"/>
      <point x="413" y="582" type="line"/>
      <point x="506" y="566" type="line"/>
      <point x="490" y="591" type="line"/>
      <point x="368" y="337" type="line"/>
      <point x="397" y="337" type="line"/>
      <point x="261" y="591" type="line"/>
      <point x="246" y="568" type="line"/>
      <point x="350" y="582" type="line"/>
      <point x="350" y="642" type="line"/>
      <point x="-10" y="642" type="line"/>
      <point x="-10" y="582" type="line"/>
      <point x="98" y="568" type="line"/>
      <point x="52" y="590" type="line"/>
      <point x="250" y="272" type="line"/>
      <point x="250" y="40" type="line"/>
      <point x="280" y="73" type="line"/>
      <point x="152" y="60" type="line"/>
    </contour>
  </outline>
</glyph>
<glyph name="brokenbar" format="1">
  <advance width="168"/>
  <unicode hex="00A6"/>
  <outline>
    <contour>
      <point x="45" y="391" type="line"/>
      <point x="123" y="391" type="line"/>
      <point x="123" y="785" type="line"/>
      <point x="45" y="785" type="line"/>
    </contour>
    <contour>
      <point x="45" y="-171" type="line"/>
      <point x="123" y="-171" type="line"/>
      <point x="123" y="223" type="line"/>
      <point x="45" y="223" type="line"/>
    </contour>
  </outline>
</glyph>
<glyph name="dieresis" format="1">
  <advance width="355"/>
  <unicode hex="00A8"/>
  <outline>
    <contour>
      <point x="25" y="610" type="curve" smooth="yes"/>
      <point x="25" y="574"/>
      <point x="51" y="548"/>
      <point x="87" y="548" type="curve" smooth="yes"/>
      <point x="123" y="548"/>
      <point x="149" y="576"/>
      <point x="149" y="610" type="curve" smooth="yes"/>
      <point x="149" y="646"/>
      <point x="123" y="673"/>
      <point x="87" y="673" type="curve" smooth="yes"/>
      <point x="52" y="673"/>
      <point x="25" y="646"/>
    </contour>
    <contour>
      <point x="206" y="610" type="curve" smooth="yes"/>
      <point x="206" y="574"/>
      <point x="232" y="548"/>
      <point x="268" y="548" type="curve" smooth="yes"/>
      <point x="304" y="548"/>
      <point x="330" y="576"/>
      <point x="330" y="610" type="curve" smooth="yes"/>
      <point x="330" y="646"/>
      <point x="304" y="673"/>
      <point x="268" y="673" type="curve" smooth="yes"/>
      <point x="233" y="673"/>
      <point x="206" y="646"/>
    </contour>
    <contour>
      <point x="177" y="464" type="move" name="_toplc"/>
    </contour>
  </outline>
</glyph>
<glyph name="macron" format="1">
  <advance width="304"/>
  <unicode hex="00AF"/>
  <outline>
    <contour>
      <point x="40" y="556" type="line"/>
      <point x="264" y="556" type="line"/>
      <point x="264" y="634" type="line"/>
      <point x="40" y="634" type="line"/>
    </contour>
    <contour>
      <point x="152" y="464" type="move" name="_toplc"/>
    </contour>
  </outline>
</glyph>
<glyph name="Eth" format="1">
  <advance width="792"/>
  <unicode hex="00D0"/>
  <outline>
    <contour>
      <point x="412" y="300" type="line"/>
      <point x="412" y="370" type="line"/>
      <point x="37" y="370" type="line"/>
      <point x="37" y="300" type="line"/>
    </contour>
    <contour>
      <point x="32" y="0" type="line"/>
      <point x="389" y="-2" type="line" smooth="yes"/>
      <point x="597" y="-3"/>
      <point x="752" y="111"/>
      <point x="752" y="325" type="curve" smooth="yes"/>
      <point x="752" y="531"/>
      <point x="625" y="646"/>
      <point x="370" y="644" type="curve" smooth="yes"/>
      <point x="32" y="642" type="line"/>
      <point x="32" y="582" type="line"/>
      <point x="160" y="568" type="line"/>
      <point x="130" y="602" type="line"/>
      <point x="130" y="40" type="line"/>
      <point x="160" y="74" type="line"/>
      <point x="32" y="60" type="line"/>
    </contour>
    <contour>
      <point x="381" y="72" type="curve" smooth="yes"/>
      <point x="314" y="72"/>
      <point x="300" y="99"/>
      <point x="300" y="151" type="curve" smooth="yes"/>
      <point x="300" y="565" type="line"/>
      <point x="335" y="565" type="line" smooth="yes"/>
      <point x="480" y="565"/>
      <point x="571" y="472"/>
      <point x="571" y="327" type="curve" smooth="yes"/>
      <point x="571" y="182"/>
      <point x="512" y="72"/>
    </contour>
  </outline>
</glyph>
<glyph name="Thorn" format="1">
  <advance width="663"/>
  <unicode hex="00DE"/>
  <outline>
    <contour>
      <point x="294" y="455" type="line"/>
      <point x="343" y="455" type="line" smooth="yes"/>
      <point x="424" y="455"/>
      <point x="480" y="407"/>
      <point x="480" y="323" type="curve" smooth="yes"/>
      <point x="480" y="247"/>
      <point x="439" y="201"/>
      <point x="351" y="192" type="curve"/>
      <point x="351" y="132" type="line"/>
      <point x="501" y="118"/>
      <point x="647" y="176"/>
      <point x="647" y="327" type="curve" smooth="yes"/>
      <point x="647" y="479"/>
      <point x="511" y="532"/>
      <point x="359" y="532" type="curve" smooth="yes"/>
      <point x="359" y="532"/>
      <point x="294" y="532"/>
      <point x="294" y="532" type="curve"/>
    </contour>
    <contour>
      <point x="32" y="0" type="line"/>
      <point x="399" y="0" type="line"/>
      <point x="399" y="60" type="line"/>
      <point x="270" y="74" type="line"/>
      <point x="300" y="40" type="line"/>
      <point x="300" y="602" type="line"/>
      <point x="270" y="568" type="line"/>
      <point x="399" y="582" type="line"/>
      <point x="399" y="642" type="line"/>
      <point x="32" y="642" type="line"/>
      <point x="32" y="582" type="line"/>
      <point x="160" y="568" type="line"/>
      <point x="130" y="602" type="line"/>
      <point x="130" y="40" type="line"/>
      <point x="160" y="74" type="line"/>
      <point x="32" y="60" type="line"/>
    </contour>
  </outline>
</glyph>
<glyph name="eth" format="1">
  <advance width="560"/>
  <unicode hex="00F0"/>
  <outline>
    <contour>
      <point x="271" y="-15" type="curve" smooth="yes"/>
      <point x="425" y="-15"/>
      <point x="535" y="91"/>
      <point x="535" y="230" type="curve" smooth="yes"/>
      <point x="535" y="450"/>
      <point x="352" y="641"/>
      <point x="84" y="674" type="curve"/>
      <point x="66" y="623" type="line"/>
      <point x="257" y="560"/>
      <point x="356" y="407"/>
      <point x="368" y="226" type="curve" smooth="yes"/>
      <point x="373" y="148"/>
      <point x="364" y="68"/>
      <point x="300" y="62" type="curve" smooth="yes"/>
      <point x="236" y="56"/>
      <point x="194" y="131"/>
      <point x="188" y="213" type="curve" smooth="yes"/>
      <point x="182" y="295"/>
      <point x="188" y="388"/>
      <point x="271" y="388" type="curve" smooth="yes"/>
      <point x="327" y="388"/>
      <point x="353" y="333"/>
      <point x="363" y="278" type="curve"/>
      <point x="392" y="364" type="line"/>
      <point x="388" y="423"/>
      <point x="344" y="440"/>
      <point x="285" y="440" type="curve" smooth="yes"/>
      <point x="141" y="440"/>
      <point x="25" y="354"/>
      <point x="25" y="210" type="curve" smooth="yes"/>
      <point x="25" y="73"/>
      <point x="139" y="-15"/>
    </contour>
    <contour>
      <point x="121" y="471" type="line"/>
      <point x="479" y="630" type="line"/>
      <point x="456" y="684" type="line"/>
      <point x="99" y="527" type="line"/>
    </contour>
  </outline>
</glyph>
<glyph name="thorn" format="1">
  <advance width="600"/>
  <unicode hex="00FE"/>
  <outline>
    <contour>
      <point x="74" y="254" type="line"/>
      <point x="74" y="-180" type="line"/>
      <point x="104" y="-147" type="line"/>
      <point x="12" y="-155" type="line"/>
      <point x="12" y="-210" type="line"/>
      <point x="309" y="-210" type="line"/>
      <point x="309" y="-155" type="line"/>
      <point x="199" y="-148" type="line"/>
      <point x="229" y="-180" type="line"/>
      <point x="229" y="190" type="line"/>
    </contour>
    <contour>
      <point x="74" y="17" type="line"/>
      <point x="135" y="-5"/>
      <point x="221" y="-15"/>
      <point x="265" y="-15" type="curve" smooth="yes"/>
      <point x="447" y="-15"/>
      <point x="569" y="78"/>
      <point x="569" y="261" type="curve" smooth="yes"/>
      <point x="569" y="385"/>
      <point x="494" y="474"/>
      <point x="390" y="474" type="curve" smooth="yes"/>
      <point x="331" y="474"/>
      <point x="281" y="442"/>
      <point x="241" y="398" type="curve" smooth="yes"/>
      <point x="219" y="374" type="line"/>
      <point x="229" y="336" type="line"/>
      <point x="248" y="350" type="line" smooth="yes"/>
      <point x="268" y="365"/>
      <point x="287" y="371"/>
      <point x="311" y="371" type="curve" smooth="yes"/>
      <point x="368" y="371"/>
      <point x="406" y="316"/>
      <point x="406" y="234" type="curve" smooth="yes"/>
      <point x="406" y="115"/>
      <point x="363" y="66"/>
      <point x="268" y="66" type="curve" smooth="yes"/>
      <point x="249" y="66"/>
      <point x="203" y="70"/>
      <point x="154" y="91" type="curve"/>
      <point x="229" y="2" type="line"/>
      <point x="229" y="580" type="line"/>
      <point x="239" y="676" type="line"/>
      <point x="8" y="638" type="line"/>
      <point x="8" y="583" type="line"/>
      <point x="103" y="565" type="line"/>
      <point x="74" y="602" type="line"/>
    </contour>
  </outline>
</glyph>
<glyph name="dcroat" format="1">
  <advance width="585"/>
  <unicode hex="0111"/>
  <outline>
    <contour>
      <point x="202" y="497" type="line"/>
      <point x="567" y="497" type="line"/>
      <point x="567" y="547" type="line"/>
      <point x="202" y="547" type="line"/>
    </contour>
    <component base="d"/>
  </outline>
</glyph>
<glyph name="hbar" format="1">
  <advance width="612"/>
  <unicode hex="0127"/>
  <outline>
    <contour>
      <point x="15" y="487" type="line"/>
      <point x="300" y="487" type="line"/>
      <point x="300" y="537" type="line"/>
      <point x="15" y="537" type="line"/>
    </contour>
    <component base="h"/>
  </outline>
</glyph>
<glyph name="lslash" format="1">
  <advance width="298.0"/>
  <unicode hex="0142"/>
  <outline>
    <contour>
      <point x="23" y="259" type="line"/>
      <point x="288" y="380" type="line"/>
      <point x="288" y="443" type="line"/>
      <point x="23" y="322" type="line"/>
    </contour>
    <component base="l"/>
  </outline>
</glyph>
<glyph name="longs" format="1">
  <advance width="358.72700280039726"/>
  <unicode hex="017F"/>
  <outline>
    <contour>
      <point x="7" y="0" type="line"/>
      <point x="316" y="0" type="line"/>
      <point x="316" y="55" type="line"/>
      <point x="199" y="62" type="line"/>
      <point x="229" y="30" type="line"/>
      <point x="229" y="536" type="line" smooth="yes"/>
      <point x="229" y="580"/>
      <point x="248" y="616"/>
      <point x="315" y="592" type="curve" smooth="yes"/>
      <point x="410" y="558" type="line"/>
      <point x="444" y="648"/>
      <point x="428" y="683"/>
      <point x="311" y="683" type="curve" smooth="yes"/>
      <point x="185" y="683"/>
      <point x="97" y="606"/>
      <point x="80" y="480" type="curve" smooth="yes"/>
      <point x="78" y="465" type="line"/>
      <point x="1" y="449" type="line"/>
      <point x="1" y="389" type="line"/>
      <point x="74" y="389" type="line"/>
      <point x="74" y="30" type="line"/>
      <point x="104" y="62" type="line"/>
      <point x="7" y="55" type="line"/>
    </contour>
  </outline>
</glyph>
<glyph name="Oslashacute" format="1">
  <advance width="757"/>
  <unicode hex="01FE"/>
  <outline>
    <contour>
      <point x="568" y="748" type="line"/>
      <point x="119" y="-59" type="line"/>
      <point x="200" y="-103" type="line"/>
      <point x="649" y="705" type="line"/>
    </contour>
    <contour>
      <point x="396" y="654" type="curve" smooth="yes"/>
      <point x="191" y="654"/>
      <point x="40" y="510"/>
      <point x="40" y="313" type="curve" smooth="yes"/>
      <point x="40" y="124"/>
      <point x="176" y="-15"/>
      <point x="362" y="-15" type="curve" smooth="yes"/>
      <point x="567" y="-15"/>
      <point x="717" y="130"/>
      <point x="717" y="328" type="curve" smooth="yes"/>
      <point x="717" y="516"/>
      <point x="581" y="654"/>
    </contour>
    <contour>
      <point x="391" y="63" type="curve" smooth="yes"/>
      <point x="293" y="60"/>
      <point x="234" y="148"/>
      <point x="227" y="310" type="curve" smooth="yes"/>
      <point x="222" y="480"/>
      <point x="272" y="576"/>
      <point x="366" y="577" type="curve" smooth="yes"/>
      <point x="459" y="580"/>
      <point x="514" y="491"/>
      <point x="521" y="329" type="curve" smooth="yes"/>
      <point x="528" y="161"/>
      <point x="481" y="66"/>
    </contour>
    <contour>
      <point x="421" y="851" type="line"/>
      <point x="340" y="705" type="line"/>
      <point x="377" y="694" type="line"/>
      <point x="568" y="824" type="line"/>
      <point x="568" y="827" type="line"/>
    </contour>
  </outline>
</glyph>
<glyph name="dotlessj" format="1">
  <advance width="297"/>
  <unicode hex="0237"/>
  <outline>
    <contour>
      <point x="-20" y="-221" type="line"/>
      <point x="52" y="-206" type="line" smooth="yes"/>
      <point x="184" y="-179"/>
      <point x="228" y="-118"/>
      <point x="228" y="-19" type="curve" smooth="yes"/>
      <point x="228" y="375" type="line"/>
      <point x="238" y="474" type="line"/>
      <point x="20" y="459" type="line"/>
      <point x="20" y="404" type="line"/>
      <point x="102" y="382" type="line"/>
      <point x="73" y="420" type="line"/>
      <point x="73" y="-29" type="line" smooth="yes"/>
      <point x="73" y="-78"/>
      <point x="62" y="-102"/>
      <point x="26" y="-124" type="curve" smooth="yes"/>
      <point x="-41" y="-164" type="line"/>
    </contour>
    <contour>
      <point x="148" y="464" type="move" name="toplc"/>
    </contour>
  </outline>
</glyph>
<glyph name="dotaccent" format="1">
  <advance width="214"/>
  <unicode hex="02D9"/>
  <outline>
    <contour>
      <point x="107" y="532" type="curve" smooth="yes"/>
      <point x="148" y="532"/>
      <point x="177" y="562"/>
      <point x="177" y="603" type="curve" smooth="yes"/>
      <point x="177" y="643"/>
      <point x="148" y="673"/>
      <point x="107" y="673" type="curve" smooth="yes"/>
      <point x="67" y="673"/>
      <point x="37" y="643"/>
      <point x="37" y="603" type="curve" smooth="yes"/>
      <point x="37" y="562"/>
      <point x="67" y="532"/>
    </contour>
    <contour>
      <point x="107.0" y="464.0" type="move" name="_toplc"/>
    </contour>
  </outline>
</glyph>
<glyph name="tilde" format="1">
  <advance width="347"/>
  <unicode hex="02DC"/>
  <outline>
    <contour>
      <point x="40" y="544" type="curve"/>
      <point x="65" y="541" type="line"/>
      <point x="76" y="578"/>
      <point x="92" y="597"/>
      <point x="111" y="597" type="curve" smooth="yes"/>
      <point x="150" y="597"/>
      <point x="178" y="536"/>
      <point x="230" y="536" type="curve" smooth="yes"/>
      <point x="272" y="536"/>
      <point x="299" y="594"/>
      <point x="307" y="665" type="curve"/>
      <point x="282" y="668" type="line"/>
      <point x="271" y="632"/>
      <point x="256" y="613"/>
      <point x="236" y="613" type="curve" smooth="yes"/>
      <point x="197" y="613"/>
      <point x="171" y="673"/>
      <point x="117" y="673" type="curve" smooth="yes"/>
      <point x="75" y="673"/>
      <point x="48" y="615"/>
    </contour>
    <contour>
      <point x="173" y="465" type="move" name="_toplc"/>
    </contour>
  </outline>
</glyph>
<glyph name="hungarumlaut" format="1">
  <advance width="355"/>
  <unicode hex="02DD"/>
  <outline>
    <contour>
      <point x="70" y="678" type="line"/>
      <point x="50" y="528" type="line"/>
      <point x="76" y="514" type="line"/>
      <point x="187" y="677" type="line"/>
      <point x="187" y="684" type="line"/>
    </contour>
    <contour>
      <point x="218" y="678" type="line"/>
      <point x="188" y="528" type="line"/>
      <point x="214" y="514" type="line"/>
      <point x="335" y="677" type="line"/>
      <point x="335" y="684" type="line"/>
    </contour>
    <contour>
      <point x="142" y="464" type="move" name="_toplc"/>
    </contour>
  </outline>
</glyph>
<glyph name="cmb:hookabovecomb" format="1">
  <advance width="368"/>
  <unicode hex="0309"/>
  <outline>
    <contour>
      <point x="201" y="494" type="line"/>
      <point x="219" y="546"/>
      <point x="288" y="546"/>
      <point x="288" y="613" type="curve" smooth="yes"/>
      <point x="288" y="658"/>
      <point x="247" y="684"/>
      <point x="202" y="684" type="curve" smooth="yes"/>
      <point x="153" y="684"/>
      <point x="105" y="656"/>
      <point x="93" y="595" type="curve"/>
      <point x="119" y="581" type="line"/>
      <point x="127" y="597"/>
      <point x="148" y="611"/>
      <point x="163" y="611" type="curve" smooth="yes"/>
      <point x="188" y="611"/>
      <point x="195" y="597"/>
      <point x="195" y="583" type="curve" smooth="yes"/>
      <point x="195" y="557"/>
      <point x="168" y="535"/>
      <point x="168" y="497" type="curve"/>
    </contour>
    <contour>
      <point x="184.0" y="444.0" type="move" name="_toplc"/>
    </contour>
  </outline>
</glyph>
<glyph name="cmb:commaturnedabove" format="1">
  <advance width="197"/>
  <unicode hex="0312"/>
  <outline>
    <contour>
      <point x="159" y="500" type="curve"/>
      <point x="38" y="500" type="line"/>
      <point x="35" y="566"/>
      <point x="66" y="639"/>
      <point x="136" y="692" type="curve"/>
      <point x="167" y="680" type="line"/>
      <point x="136" y="620"/>
      <point x="140" y="560"/>
    </contour>
    <contour>
      <point x="96.0" y="444.0" type="move" name="_toplc"/>
    </contour>
  </outline>
</glyph>
<glyph name="cmb:horn" format="1">
  <advance width="500"/>
  <unicode hex="031B"/>
  <outline>
    <contour>
      <point x="224" y="407" type="line"/>
      <point x="294" y="400"/>
      <point x="395" y="423"/>
      <point x="395" y="491" type="curve" smooth="yes"/>
      <point x="395" y="540"/>
      <point x="361" y="567"/>
      <point x="325" y="567" type="curve" smooth="yes"/>
      <point x="278" y="567"/>
      <point x="265" y="535"/>
      <point x="264" y="506" type="curve"/>
      <point x="292" y="504" type="line" smooth="yes"/>
      <point x="307" y="503"/>
      <point x="318" y="495"/>
      <point x="318" y="480" type="curve" smooth="yes"/>
      <point x="318" y="456"/>
      <point x="292" y="455"/>
      <point x="268" y="455" type="curve" smooth="yes"/>
      <point x="251" y="455"/>
      <point x="235" y="457"/>
      <point x="219" y="460" type="curve"/>
    </contour>
    <contour>
      <point x="196" y="446" type="move" name="_right"/>
    </contour>
  </outline>
</glyph>
<glyph name="cmb:turnedbelow" format="1">
  <advance width="177"/>
  <unicode hex="0326"/>
  <outline>
    <contour>
      <point x="42" y="-57" type="curve"/>
      <point x="163" y="-57" type="line"/>
      <point x="166" y="-123"/>
      <point x="135" y="-196"/>
      <point x="65" y="-249" type="curve"/>
      <point x="34" y="-237" type="line"/>
      <point x="65" y="-177"/>
      <point x="61" y="-117"/>
    </contour>
    <contour>
      <point x="87.0" y="0.0" type="move" name="_bottom"/>
    </contour>
  </outline>
</glyph>
<glyph name="emdash" format="1">
  <advance width="710"/>
  <unicode hex="2014"/>
  <outline>
    <contour>
      <point x="710" y="205" type="line"/>
      <point x="710" y="284" type="line"/>
      <point x="0" y="284" type="line"/>
      <point x="0" y="205" type="line"/>
    </contour>
  </outline>
</glyph>
<glyph name="quoteleft" format="1">
  <advance width="244"/>
  <unicode hex="2018"/>
  <outline>
    <contour>
      <point x="211" y="534" type="curve"/>
      <point x="176" y="540" type="line" smooth="yes"/>
      <point x="153" y="544"/>
      <point x="136" y="558"/>
      <point x="136" y="581" type="curve" smooth="yes"/>
      <point x="136" y="628"/>
      <point x="169" y="653"/>
      <point x="214" y="668" type="curve"/>
      <point x="197" y="708" type="line"/>
      <point x="94" y="683"/>
      <point x="30" y="618"/>
      <point x="30" y="538" type="curve" smooth="yes"/>
      <point x="30" y="483"/>
      <point x="74" y="442"/>
      <point x="129" y="442" type="curve" smooth="yes"/>
      <point x="182" y="442"/>
      <point x="219" y="481"/>
    </contour>
  </outline>
</glyph>
<glyph name="dagger" format="1">
  <advance width="496"/>
  <unicode hex="2020"/>
  <outline>
    <contour>
      <point x="230" y="-97" type="line"/>
      <point x="316" y="-97" type="line"/>
      <point x="341" y="284" type="line"/>
      <point x="316" y="376" type="line"/>
      <point x="230" y="376" type="line"/>
      <point x="205" y="284" type="line"/>
    </contour>
    <contour>
      <point x="230" y="502" type="line"/>
      <point x="316" y="502" type="line"/>
      <point x="344" y="672" type="line"/>
      <point x="203" y="672" type="line"/>
    </contour>
    <contour>
      <point x="50" y="375" type="line"/>
      <point x="212" y="399" type="line"/>
      <point x="212" y="479" type="line"/>
      <point x="50" y="503" type="line"/>
    </contour>
    <contour>
      <point x="496" y="375" type="line"/>
      <point x="496" y="503" type="line"/>
      <point x="335" y="479" type="line"/>
      <point x="335" y="399" type="line"/>
    </contour>
  </outline>
</glyph>
<glyph name="daggerdbl" format="1">
  <advance width="511"/>
  <unicode hex="2021"/>
  <outline>
    <contour>
      <point x="205" y="502" type="line"/>
      <point x="291" y="502" type="line"/>
      <point x="319" y="672" type="line"/>
      <point x="178" y="672" type="line"/>
    </contour>
    <contour>
      <point x="25" y="375" type="line"/>
      <point x="187" y="399" type="line"/>
      <point x="187" y="479" type="line"/>
      <point x="25" y="503" type="line"/>
    </contour>
    <contour>
      <point x="471" y="375" type="line"/>
      <point x="471" y="503" type="line"/>
      <point x="310" y="479" type="line"/>
      <point x="310" y="399" type="line"/>
    </contour>
    <contour>
      <point x="291" y="66" type="line"/>
      <point x="205" y="66" type="line"/>
      <point x="177" y="-104" type="line"/>
      <point x="318" y="-104" type="line"/>
    </contour>
    <contour>
      <point x="471" y="193" type="line"/>
      <point x="309" y="169" type="line"/>
      <point x="309" y="89" type="line"/>
      <point x="471" y="65" type="line"/>
    </contour>
    <contour>
      <point x="25" y="193" type="line"/>
      <point x="25" y="65" type="line"/>
      <point x="186" y="89" type="line"/>
      <point x="186" y="169" type="line"/>
    </contour>
    <contour>
      <point x="316" y="284" type="line"/>
      <point x="291" y="376" type="line"/>
      <point x="205" y="376" type="line"/>
      <point x="180" y="284" type="line"/>
      <point x="205" y="192" type="line"/>
      <point x="291" y="192" type="line"/>
    </contour>
  </outline>
</glyph>
<glyph name="guilsinglright" format="1">
  <advance width="382"/>
  <unicode hex="203A"/>
  <outline>
    <contour>
      <point x="88" y="33" type="line"/>
      <point x="332" y="234" type="line"/>
      <point x="332" y="250" type="line"/>
      <point x="88" y="451" type="line"/>
      <point x="50" y="412" type="line"/>
      <point x="166" y="242" type="line"/>
      <point x="50" y="72" type="line"/>
    </contour>
  </outline>
</glyph>
<glyph name="Euro" format="1">
  <advance width="604"/>
  <unicode hex="20AC"/>
  <outline>
    <contour>
      <point x="545" y="119" type="line"/>
      <point x="466" y="64"/>
      <point x="447" y="62"/>
      <point x="409" y="62" type="curve" smooth="yes"/>
      <point x="293" y="62"/>
      <point x="225" y="133"/>
      <point x="225" y="320" type="curve" smooth="yes"/>
      <point x="225" y="507"/>
      <point x="279" y="583"/>
      <point x="369" y="583" type="curve" smooth="yes"/>
      <point x="405" y="583"/>
      <point x="405" y="579"/>
      <point x="466" y="555" type="curve"/>
      <point x="429" y="595" type="line"/>
      <point x="480" y="429" type="line"/>
      <point x="540" y="429" type="line"/>
      <point x="550" y="649" type="line"/>
      <point x="450" y="635" type="line"/>
      <point x="412" y="648"/>
      <point x="392" y="655"/>
      <point x="352" y="655" type="curve" smooth="yes"/>
      <point x="190" y="655"/>
      <point x="40" y="514"/>
      <point x="40" y="305" type="curve" smooth="yes"/>
      <point x="40" y="112"/>
      <point x="187" y="-15"/>
      <point x="364" y="-15" type="curve" smooth="yes"/>
      <point x="457" y="-15"/>
      <point x="499" y="6"/>
      <point x="569" y="69" type="curve"/>
    </contour>
    <contour>
      <point x="-40" y="216" type="line"/>
      <point x="445" y="216" type="line"/>
      <point x="451" y="282" type="line"/>
      <point x="-34" y="282" type="line"/>
    </contour>
    <contour>
      <point x="-40" y="336" type="line"/>
      <point x="445" y="336" type="line"/>
      <point x="451" y="402" type="line"/>
      <point x="-34" y="402" type="line"/>
    </contour>
  </outline>
</glyph>
<glyph name="breve.case" format="1">
  <advance width="366"/>
  <outline>
    <contour>
      <point x="183" y="780" type="curve" smooth="yes"/>
      <point x="128" y="780"/>
      <point x="91" y="807"/>
      <point x="91" y="839" type="curve" smooth="yes"/>
      <point x="91" y="856" type="line"/>
      <point x="40" y="856" type="line"/>
      <point x="40" y="811" type="line" smooth="yes"/>
      <point x="40" y="739"/>
      <point x="111" y="701"/>
      <point x="183" y="701" type="curve" smooth="yes"/>
      <point x="255" y="701"/>
      <point x="326" y="739"/>
      <point x="326" y="811" type="curve" smooth="yes"/>
      <point x="326" y="855" type="line"/>
      <point x="276" y="855" type="line"/>
      <point x="276" y="839" type="line" smooth="yes"/>
      <point x="276" y="806"/>
      <point x="238" y="780"/>
    </contour>
    <contour>
      <point x="183.0" y="642.0" type="move" name="_topuc"/>
    </contour>
  </outline>
</glyph>
<glyph name="dieresis.case" format="1">
  <advance width="296"/>
  <outline>
    <contour>
      <point x="-12" y="771" type="curve" smooth="yes"/>
      <point x="-12" y="731"/>
      <point x="18" y="703"/>
      <point x="58" y="703" type="curve" smooth="yes"/>
      <point x="98" y="703"/>
      <point x="127" y="731"/>
      <point x="127" y="771" type="curve" smooth="yes"/>
      <point x="127" y="810"/>
      <point x="97" y="836"/>
      <point x="58" y="836" type="curve" smooth="yes"/>
      <point x="18" y="836"/>
      <point x="-12" y="811"/>
    </contour>
    <contour>
      <point x="169" y="771" type="curve" smooth="yes"/>
      <point x="169" y="731"/>
      <point x="199" y="703"/>
      <point x="239" y="703" type="curve" smooth="yes"/>
      <point x="279" y="703"/>
      <point x="308" y="731"/>
      <point x="308" y="771" type="curve" smooth="yes"/>
      <point x="308" y="810"/>
      <point x="278" y="836"/>
      <point x="239" y="836" type="curve" smooth="yes"/>
      <point x="199" y="836"/>
      <point x="169" y="811"/>
    </contour>
    <contour>
      <point x="148.0" y="642.0" type="move" name="_topuc"/>
    </contour>
  </outline>
</glyph>
<glyph name="four.ot" format="1">
  <advance width="578"/>
  <outline>
    <contour>
      <point x="294" y="-153" type="line"/>
      <point x="446" y="-153" type="line"/>
      <point x="446" y="20" type="line"/>
      <point x="551" y="20" type="line"/>
      <point x="551" y="106" type="line"/>
      <point x="446" y="106" type="line"/>
      <point x="446" y="488" type="line"/>
      <point x="367" y="496" type="line"/>
      <point x="27" y="76" type="line"/>
      <point x="27" y="20" type="line"/>
      <point x="294" y="20" type="line"/>
    </contour>
    <contour>
      <point x="118" y="80" type="line"/>
      <point x="389" y="422" type="line"/>
      <point x="294" y="365" type="line"/>
      <point x="294" y="106" type="line"/>
      <point x="73" y="106" type="line"/>
    </contour>
  </outline>
</glyph>
<glyph name="hungarumlaut.case" format="1">
  <advance width="347"/>
  <outline>
    <contour>
      <point x="81" y="821" type="line"/>
      <point x="40" y="705" type="line"/>
      <point x="77" y="694" type="line"/>
      <point x="198" y="824" type="line"/>
      <point x="198" y="827" type="line"/>
    </contour>
    <contour>
      <point x="230" y="821" type="line"/>
      <point x="169" y="705" type="line"/>
      <point x="206" y="694" type="line"/>
      <point x="357" y="824" type="line"/>
      <point x="357" y="827" type="line"/>
    </contour>
    <contour>
      <point x="128" y="642" type="move" name="_topuc"/>
    </contour>
  </outline>
</glyph>
<glyph name="macron.case" format="1">
  <advance width="265"/>
  <outline>
    <contour>
      <point x="-20" y="730" type="line"/>
      <point x="285" y="730" type="line"/>
      <point x="285" y="815" type="line"/>
      <point x="-20" y="815" type="line"/>
    </contour>
    <contour>
      <point x="132.0" y="642.0" type="move" name="_topuc"/>
    </contour>
  </outline>
</glyph>
<glyph name="one.ot" format="1">
  <advance width="577"/>
  <outline>
    <contour>
      <point x="95" y="0" type="line"/>
      <point x="489" y="0" type="line"/>
      <point x="489" y="56" type="line"/>
      <point x="341" y="69" type="line"/>
      <point x="371" y="36" type="line"/>
      <point x="369" y="505" type="line"/>
      <point x="88" y="457" type="line"/>
      <point x="88" y="395" type="line"/>
      <point x="244" y="395" type="line"/>
      <point x="214" y="425" type="line"/>
      <point x="214" y="36" type="line"/>
      <point x="244" y="69" type="line"/>
      <point x="95" y="56" type="line"/>
    </contour>
  </outline>
</glyph>
<glyph name="ring.case" format="1">
  <advance width="199"/>
  <outline>
    <contour>
      <point x="99" y="765" type="curve" smooth="yes"/>
      <point x="72" y="765"/>
      <point x="53" y="780"/>
      <point x="53" y="807" type="curve" smooth="yes"/>
      <point x="53" y="834"/>
      <point x="72" y="850"/>
      <point x="99" y="850" type="curve" smooth="yes"/>
      <point x="126" y="850"/>
      <point x="146" y="834"/>
      <point x="146" y="807" type="curve" smooth="yes"/>
      <point x="146" y="780"/>
      <point x="126" y="765"/>
    </contour>
    <contour>
      <point x="99" y="707" type="curve" smooth="yes"/>
      <point x="162" y="707"/>
      <point x="219" y="744"/>
      <point x="219" y="807" type="curve" smooth="yes"/>
      <point x="219" y="870"/>
      <point x="162" y="907"/>
      <point x="99" y="907" type="curve" smooth="yes"/>
      <point x="36" y="907"/>
      <point x="-20" y="870"/>
      <point x="-20" y="807" type="curve" smooth="yes"/>
      <point x="-20" y="744"/>
      <point x="36" y="707"/>
    </contour>
    <contour>
      <point x="99.0" y="642.0" type="move" name="_topuc"/>
    </contour>
  </outline>
</glyph>
<glyph name="tilde.case" format="1">
  <advance width="347"/>
  <outline>
    <contour>
      <point x="246" y="802" type="curve" smooth="yes"/>
      <point x="207" y="802"/>
      <point x="161" y="852"/>
      <point x="107" y="852" type="curve" smooth="yes"/>
      <point x="65" y="852"/>
      <point x="38" y="794"/>
      <point x="30" y="723" type="curve"/>
      <point x="65" y="720" type="line"/>
      <point x="76" y="757"/>
      <point x="82" y="766"/>
      <point x="101" y="766" type="curve" smooth="yes"/>
      <point x="140" y="766"/>
      <point x="188" y="715"/>
      <point x="240" y="715" type="curve" smooth="yes"/>
      <point x="282" y="715"/>
      <point x="309" y="773"/>
      <point x="317" y="844" type="curve"/>
      <point x="282" y="847" type="line"/>
      <point x="271" y="811"/>
      <point x="266" y="802"/>
    </contour>
    <contour>
      <point x="173.0" y="642.0" type="move" name="_topuc"/>
    </contour>
  </outline>
</glyph>
